{
.formatVersion = 3;
date = "2010-12-05 05:11:38 +0000";
familyName = ArchitectsDaughter;
fontMaster = (
{
customParameters = (
{
name = typoAscender;
value = 1010;
},
{
name = typoDescender;
value = -413;
},
{
name = typoLineGap;
value = 0;
},
{
name = winAscent;
value = 1010;
},
{
name = winDescent;
value = 413;
},
{
name = hheaAscender;
value = 1010;
},
{
name = hheaDescender;
value = -413;
},
{
name = hheaLineGap;
value = 0;
}
);
id = "f82a6a9d-0b44-4d80-bd76-0945f084e1d5";
metricValues = (
{
},
{
},
{
},
{
pos = 819;
},
{
pos = -205;
},
{
pos = 717;
},
{
pos = 666;
},
{
},
{
pos = 143;
},
{
pos = 717;
},
{
pos = 666;
},
{
},
{
pos = 488;
},
{
pos = 51;
},
{
pos = 256;
}
);
name = Regular;
visible = 1;
}
);
glyphs = (
{
glyphname = exclam;
layers = (
{
layerId = "f82a6a9d-0b44-4d80-bd76-0945f084e1d5";
name = Fore;
shapes = (
{
closed = 1;
nodes = (
(105,67,o),
(114.5,59,q),
(124,51,o),
(124,42,q),
(113,2,o),
(76,-6,q),
(70,-7,o),
(63,-7,q),
(56,-7,o),
(45.5,-3,q),
(35,1,o),
(30,11,q),
(19,36,o),
(63,67,q)
);
},
{
closed = 1;
nodes = (
(104,875,o),
(104,576.5,q),
(104,278,o),
(89,233,q),
(22,233,l),
(22,336,o),
(30,491,q),
(44,792,o),
(44,897,q),
(110,901,l)
);
}
);
width = 138;
}
);
unicode = 33;
},
{
glyphname = quotedbl;
layers = (
{
layerId = "f82a6a9d-0b44-4d80-bd76-0945f084e1d5";
name = Fore;
shapes = (
{
closed = 1;
nodes = (
(147,622,l),
(146,663,l),
(146,746,o),
(182,763,q),
(199,747,l),
(199,548,l),
(215,514,l),
(212,511,o),
(199.5,504.5,q),
(187,498,o),
(182,498,q),
(146,498,o),
(146,594,q)
);
},
{
closed = 1;
nodes = (
(55,614,l),
(54,656,l),
(54,739,o),
(90,756,q),
(106,740,l),
(106,541,l),
(123,507,l),
(119,503,o),
(107,496.5,q),
(95,490,o),
(90,490,q),
(54,490,o),
(54,585,q)
);
}
);
width = 242;
}
);
unicode = 34;
},
{
glyphname = numbersign;
layers = (
{
layerId = "f82a6a9d-0b44-4d80-bd76-0945f084e1d5";
name = Fore;
shapes = (
{
closed = 1;
nodes = (
(86,368,o),
(128,368,q),
(146,368,o),
(164.5,363.5,q),
(183,359,o),
(186,359,q),
(186,448,l),
(172,448,o),
(141,453,q),
(110,458,o),
(93.5,460.5,q),
(77,463,o),
(70,465,q),
(56,473,o),
(56,481.5,q),
(56,490,o),
(70,498,q),
(77,499,o),
(93.5,502,q),
(110,505,o),
(128,508,q),
(177,514,o),
(186,514,q),
(186,630,l),
(186,644,o),
(199,646.5,q),
(212,649,o),
(220,649,q),
(228,649,o),
(240.5,646.5,q),
(253,644,o),
(253,630,q),
(253,521,l),
(353,531,l),
(353,664,l),
(403,664,l),
(436,531,l),
(612,531,l),
(612,477,o),
(539,477,q),
(510,477,o),
(476.5,482.5,q),
(443,488,o),
(436,488,q),
(436,386,l),
(496,386,o),
(552.5,394,q),
(609,402,o),
(669,402,q),
(669,382,l),
(669,351,o),
(508,339,q),
(482,337,o),
(462,335.5,q),
(442,334,o),
(436,332,q),
(434,300,o),
(432.5,277,q),
(431,254,o),
(424,239,q),
(409,210,o),
(353,210,q),
(353,309,l),
(331,311,o),
(310.5,311,q),
(290,311,o),
(272.5,306,q),
(255,301,o),
(250.5,289,q),
(246,277,o),
(252,262,q),
(258,247,o),
(261.5,233.5,q),
(265,220,o),
(258,210,q),
(251,200,o),
(220,198,q),
(212,198,l),
(205,198,o),
(203,199,q),
(198,297,o),
(142,318,q),
(120,326,o),
(103,327,q),
(86,328,o),
(86,339,q)
);
},
{
closed = 1;
nodes = (
(349,482,o),
(340,482,q),
(331,482,o),
(316.5,480.5,q),
(302,479,o),
(288,477,q),
(253,472,o),
(253,465,q),
(253,359,l),
(314,359,o),
(332,366,q),
(370,381,o),
(370,432,q),
(370,466,o),
(365.5,472.5,q),
(361,479,o),
(355,480.5,q)
);
}
);
width = 653;
}
);
unicode = 35;
},
{
glyphname = dollar;
layers = (
{
layerId = "f82a6a9d-0b44-4d80-bd76-0945f084e1d5";
name = Fore;
shapes = (
{
closed = 1;
nodes = (
(361,34,l),
(361,23,l),
(361,8,o),
(322,0,q),
(301,-4,o),
(269,-4,q),
(255,194,l),
(262,174,o),
(184,174,q),
(156,175,l),
(152,177,o),
(150,191,q),
(145,215,o),
(142,221,q),
(151,239,o),
(237,246,q),
(255,248,o),
(261,249,q),
(261,382,l),
(237,382,l),
(82,382,o),
(28,428,q),
(11,443,o),
(11,466,q),
(9,476,o),
(9,495,q),
(9,514,o),
(29,542.5,q),
(49,571,o),
(85,594,q),
(151,636,o),
(228,648,q),
(228,880,l),
(277,880,l),
(310,681,l),
(510,681,l),
(510,639,l),
(328,614,l),
(327,423,l),
(554,423,l),
(555,414,o),
(555,394,q),
(555,374,o),
(544.5,347,q),
(534,320,o),
(514,299.5,q),
(494,279,o),
(468,265.5,q),
(442,252,o),
(417.5,241.5,q),
(393,231,o),
(373,221.5,q),
(353,212,o),
(343,199,q)
);
},
{
closed = 1;
nodes = (
(468,389,o),
(432,389,q),
(407,389,o),
(378.5,382,q),
(350,375,o),
(337,369,q),
(343,282,l),
(478,321,o),
(478,373,q)
);
},
{
closed = 1;
nodes = (
(202,431,l),
(216,431,o),
(228,431,q),
(240,431,o),
(248.5,431.5,q),
(257,432,o),
(261,432,q),
(244,581,l),
(244,582,o),
(236.5,583.5,q),
(229,585,o),
(217,585,q),
(205,585,o),
(182,575,q),
(159,565,o),
(138,549,q),
(91,512,o),
(91,472,q),
(91,430,o),
(159,430,q)
);
}
);
width = 570;
}
);
unicode = 36;
},
{
glyphname = percent;
layers = (
{
layerId = "f82a6a9d-0b44-4d80-bd76-0945f084e1d5";
name = Fore;
shapes = (
{
closed = 1;
nodes = (
(303,102,o),
(303,128.5,q),
(303,155,o),
(315,175,q),
(335,208,o),
(375,208,q),
(401,208,o),
(424,196,q),
(471,171,o),
(475,125,q),
(475,75,o),
(454,58.5,q),
(433,42,o),
(393,42,q),
(362,42,o),
(341.5,57,q),
(321,72,o),
(312,87,q)
);
},
{
closed = 1;
nodes = (
(406,165,o),
(379,165,q),
(348,165,o),
(342,136,q),
(342,132,o),
(342,122.5,q),
(342,113,o),
(354,94,q),
(372,79,o),
(390,77,q),
(426,73,o),
(434,106,q),
(434,111,o),
(434,119.5,q),
(434,128,o),
(428,142,q)
);
},
{
closed = 1;
nodes = (
(31,481,o),
(31,507.5,q),
(31,534,o),
(43,554,q),
(63,587,o),
(103,587,q),
(129,587,o),
(152,575,q),
(199,550,o),
(203,504,q),
(203,454,o),
(182,437.5,q),
(161,421,o),
(121,421,q),
(90,421,o),
(69.5,436,q),
(49,451,o),
(40,466,q)
);
},
{
closed = 1;
nodes = (
(134,544,o),
(107,544,q),
(76,544,o),
(70,514,q),
(70,511,o),
(70,501.5,q),
(70,492,o),
(82,473,q),
(100,458,o),
(117.5,456,q),
(135,454,o),
(146,462,q),
(162,474,o),
(162,490.5,q),
(162,507,o),
(156,521,q)
);
},
{
closed = 1;
nodes = (
(62,3,o),
(62,30,q),
(62,39,l),
(62,72,o),
(231,338,q),
(332,497,o),
(371.5,548.5,q),
(411,600,o),
(415,600,q),
(420,603,o),
(423.5,603,q),
(427,603,o),
(427,592.5,q),
(427,582,o),
(411.5,547,q),
(396,512,o),
(371.5,466.5,q),
(347,421,o),
(317.5,369,q),
(288,317,o),
(254.5,262.5,q),
(221,208,o),
(189,159,q),
(116,48,o),
(77,3,q)
);
}
);
width = 531;
}
);
unicode = 37;
},
{
glyphname = ampersand;
layers = (
{
layerId = "f82a6a9d-0b44-4d80-bd76-0945f084e1d5";
name = Fore;
shapes = (
{
closed = 1;
nodes = (
(622,48,o),
(578,48,q),
(549,48,o),
(503,75,q),
(486,85,o),
(468.5,93.5,q),
(451,102,o),
(430,102,q),
(399,86,o),
(362,66,q),
(234,-2,o),
(137,-2,q),
(105,0,l),
(104,0,o),
(99.5,0,q),
(95,0,o),
(78,4,q),
(34,15,o),
(12,35,q),
(5,42,o),
(5,48.5,q),
(5,55,o),
(7,59,q),
(189,349,l),
(145,425,o),
(134,456,q),
(118,505,o),
(118,571,q),
(126,673,o),
(186,740,q),
(233,791,o),
(280,791,q),
(316,791,o),
(335,756,q),
(348,734,o),
(348,694,q),
(348,577,o),
(238,366,q),
(241,326,o),
(332,250,q),
(376,213,o),
(407,195,q),
(438,177,o),
(446,177,q),
(503,209,o),
(524,230,q),
(545,251,o),
(555,264,q),
(565,277,o),
(577,292,q),
(607,331,o),
(649,370,q),
(659,370,o),
(671,360.5,q),
(683,351,o),
(682,348.5,q),
(681,346,o),
(673,331,q),
(665,316,o),
(644,290,q),
(590,224,o),
(487,149,q),
(622,82,o),
(622,76,q)
);
},
{
closed = 1;
nodes = (
(80,44,o),
(97,44,q),
(100,44,o),
(123.5,44.5,q),
(147,45,o),
(182.5,50.5,q),
(218,56,o),
(251,67,q),
(308,86,o),
(387,133,q),
(221,299,l),
(197,275,o),
(165,227,q),
(80,103,o),
(80,62,q)
);
},
{
closed = 1;
nodes = (
(251,441,o),
(277,534,q),
(297,605,o),
(297,677,q),
(298,703,l),
(298,721,o),
(289.5,726,q),
(281,731,o),
(259.5,731,q),
(238,731,o),
(219,712.5,q),
(200,694,o),
(188,667,q),
(166,618,o),
(166,546,q),
(166,474,o),
(205,415,q)
);
}
);
width = 686;
}
);
unicode = 38;
},
{
glyphname = quotesingle;
layers = (
{
layerId = "f82a6a9d-0b44-4d80-bd76-0945f084e1d5";
name = Fore;
shapes = (
{
closed = 1;
nodes = (
(128,619,o),
(128,584,q),
(128,543,o),
(94,476,q),
(84,456,o),
(75,442,q),
(27,438,l),
(83,614,l),
(95,619,o),
(104,619,q)
);
}
);
width = 166;
}
);
unicode = 39;
},
{
glyphname = parenleft;
layers = (
{
layerId = "f82a6a9d-0b44-4d80-bd76-0945f084e1d5";
name = Fore;
shapes = (
{
closed = 1;
nodes = (
(199,14,o),
(168.5,14,q),
(138,14,o),
(116,35.5,q),
(94,57,o),
(77,90.5,q),
(60,124,o),
(48.5,164.5,q),
(37,205,o),
(30,244,q),
(15,318,o),
(15,353.5,q),
(15,389,o),
(23,436.5,q),
(31,484,o),
(46,540,q),
(61,596,o),
(82.5,653.5,q),
(104,711,o),
(130,758,q),
(189,864,o),
(249,864,q),
(260,864,o),
(268.5,862,q),
(277,860,o),
(282,847,q),
(188,714,o),
(157.5,649,q),
(127,584,o),
(112.5,525.5,q),
(98,467,o),
(98,407.5,q),
(98,348,o),
(114,301.5,q),
(130,255,o),
(148.5,211,q),
(167,167,o),
(183,123,q),
(199,79,o),
(199,34,q)
);
}
);
width = 305;
}
);
unicode = 40;
},
{
glyphname = parenright;
layers = (
{
layerId = "f82a6a9d-0b44-4d80-bd76-0945f084e1d5";
name = Fore;
shapes = (
{
closed = 1;
nodes = (
(26,779,l),
(26,802,o),
(38,808.5,q),
(50,815,o),
(70,815,q),
(153,815,o),
(218,722,q),
(296,607,o),
(323,422,q),
(330,373,o),
(330,345.5,q),
(330,318,o),
(323.5,284.5,q),
(317,251,o),
(304.5,213.5,q),
(292,176,o),
(274.5,138,q),
(257,100,o),
(234,69,q),
(184,0,o),
(128,0,q),
(124,0,o),
(117.5,6,q),
(111,12,o),
(111,16,q),
(128,58,o),
(154,94.5,q),
(180,131,o),
(204,167.5,q),
(228,204,o),
(245,243.5,q),
(262,283,o),
(262,347.5,q),
(262,412,o),
(243.5,472,q),
(225,532,o),
(193,581,q),
(161,630,o),
(118.5,673,q),
(76,716,o),
(28,763,q)
);
}
);
width = 360;
}
);
unicode = 41;
},
{
glyphname = asterisk;
layers = (
{
layerId = "f82a6a9d-0b44-4d80-bd76-0945f084e1d5";
name = Fore;
shapes = (
{
closed = 1;
nodes = (
(153,319,o),
(159,371,q),
(159,393,o),
(123,416,q),
(108,425,o),
(92,434,q),
(39,465,o),
(39,506,q),
(39,516,o),
(42,528,q),
(79,527,o),
(102,514,q),
(125,501,o),
(144,488,q),
(183,460,o),
(205,460,q),
(215,460,o),
(225,462,q),
(307,678,l),
(315,699,o),
(363,699,q),
(363,662,o),
(352.5,608.5,q),
(342,555,o),
(337,526,q),
(332,497,o),
(332,466,q),
(363,466,o),
(408,477.5,q),
(453,489,o),
(476.5,494.5,q),
(500,500,o),
(526,500,q),
(526,468,o),
(511,450.5,q),
(496,433,o),
(473,422.5,q),
(450,412,o),
(424,405.5,q),
(398,399,o),
(375,389,q),
(322,366,o),
(322,314,q),
(322,284,o),
(334,249,q),
(358,183,o),
(358,159.5,q),
(358,136,o),
(343.5,129,q),
(329,122,o),
(307,113,q),
(287,123,o),
(279,143.5,q),
(271,164,o),
(266,187.5,q),
(261,211,o),
(253,231.5,q),
(245,252,o),
(225,262,q),
(207,247,o),
(191.5,224.5,q),
(176,202,o),
(158.5,181,q),
(141,160,o),
(121,145,q),
(101,130,o),
(75,130,q),
(71,130,o),
(64.5,136,q),
(58,142,o),
(58,146,q),
(67,164,o),
(82,190,q)
);
}
);
width = 520;
}
);
unicode = 42;
},
{
glyphname = plus;
layers = (
{
layerId = "f82a6a9d-0b44-4d80-bd76-0945f084e1d5";
name = Fore;
shapes = (
{
closed = 1;
nodes = (
(210,501,o),
(245,501,q),
(262,501,o),
(267,494.5,q),
(272,488,o),
(275,473,q),
(278,458,o),
(281,439,q),
(284,420,o),
(286.5,399,q),
(289,378,o),
(291.5,359,q),
(294,340,o),
(294,333,q),
(514,333,l),
(514,294,o),
(420,288,q),
(394,287,o),
(370,286,q),
(305,285,o),
(294,282,q),
(292,268,o),
(292,254.5,q),
(292,241,o),
(294,220,q),
(296,199,o),
(301,168,q),
(311,105,o),
(311,83.5,q),
(311,62,o),
(310,50,q),
(290,34,o),
(266,34,q),
(247,34,o),
(244,50,q),
(242,71,o),
(240,98.5,q),
(238,126,o),
(234,156,q),
(224,231,o),
(210,266,q),
(183,266,o),
(146,255,q),
(71,233,o),
(40.5,232.5,q),
(10,232,o),
(10,258,q),
(10,285,o),
(110,290,q),
(170,294,o),
(190,300,q),
(210,306,o),
(210,316,q),
(210,482,l)
);
}
);
width = 537;
}
);
unicode = 43;
},
{
glyphname = comma;
layers = (
{
layerId = "f82a6a9d-0b44-4d80-bd76-0945f084e1d5";
name = Fore;
shapes = (
{
closed = 1;
nodes = (
(54,99,o),
(62,101,q),
(70,103,o),
(79,103,q),
(88,103,o),
(96,101,q),
(110,97,o),
(116,84,q),
(116,82,o),
(116,78.5,q),
(116,75,o),
(112,65.5,q),
(108,56,o),
(99.5,40.5,q),
(91,25,o),
(81,8.5,q),
(71,-8,o),
(61,-23,q),
(51,-38,o),
(46.5,-46,q),
(42,-54,o),
(35,-61,q),
(11,-85,o),
(-10,-85,q),
(-16,-85,o),
(-22,-83,q),
(48,86,l)
);
}
);
width = 182;
}
);
unicode = 44;
},
{
glyphname = hyphen;
layers = (
{
layerId = "f82a6a9d-0b44-4d80-bd76-0945f084e1d5";
name = Fore;
shapes = (
{
closed = 1;
nodes = (
(30,216,o),
(30,242,q),
(30,255,o),
(41.5,260,q),
(53,265,o),
(81.5,269,q),
(110,273,o),
(153.5,281,q),
(197,289,o),
(245,294,q),
(265,294,o),
(279,287,q),
(299,277,o),
(299,263,q),
(299,258,o),
(294.5,250,q),
(290,242,o),
(272,236,q),
(80,216,l)
);
}
);
width = 318;
}
);
unicode = 45;
},
{
glyphname = period;
layers = (
{
layerId = "f82a6a9d-0b44-4d80-bd76-0945f084e1d5";
name = Fore;
shapes = (
{
closed = 1;
nodes = (
(23,1,o),
(23,19,q),
(23,41,o),
(48,60,q),
(58,67,o),
(63.5,67,q),
(69,67,o),
(72,66,q),
(93,66,o),
(100.5,57.5,q),
(108,49,o),
(108,35,q),
(108,21,o),
(102,14,q),
(96,7,o),
(87,4,q),
(72,-1,o),
(46,-1,q)
);
}
);
width = 144;
}
);
unicode = 46;
},
{
glyphname = slash;
layers = (
{
layerId = "f82a6a9d-0b44-4d80-bd76-0945f084e1d5";
name = Fore;
shapes = (
{
closed = 1;
nodes = (
(21,0,o),
(21,32,q),
(21,42,l),
(36,86,o),
(416,656,q),
(435,685,o),
(438,689,q),
(443,686,o),
(443,675,q),
(443,664,o),
(431,629,q),
(419,594,o),
(387.5,528,q),
(356,462,o),
(311.5,383.5,q),
(267,305,o),
(219,230,q),
(108,58,o),
(39,0,q)
);
}
);
width = 466;
}
);
unicode = 47;
},
{
glyphname = zero;
layers = (
{
layerId = "f82a6a9d-0b44-4d80-bd76-0945f084e1d5";
name = Fore;
shapes = (
{
closed = 1;
nodes = (
(80,67,o),
(59,101.5,q),
(38,136,o),
(38,176,q),
(38,216,o),
(50,271,q),
(62,326,o),
(80.5,373,q),
(99,420,o),
(125.5,464,q),
(152,508,o),
(186,542,q),
(261,615,o),
(356,615,q),
(484,615,o),
(552,521,q),
(615,436,o),
(615,310,q),
(615,161,o),
(520,78,q),
(427,-2,o),
(273,-2,q),
(184,-2,o),
(116,44,q)
);
},
{
closed = 1;
nodes = (
(97,48,o),
(289,48,q),
(427,48,o),
(496.5,119,q),
(566,190,o),
(566,321,q),
(566,325,o),
(566,329,q),
(566,444,o),
(509,505,q),
(452,566,o),
(353,566,q),
(342,566,o),
(333.5,566,q),
(325,566,o),
(318,566,q),
(265,566,o),
(213,494,q),
(164,428,o),
(129,325,q),
(97,231,o),
(97,183,q)
);
}
);
width = 646;
}
);
unicode = 48;
},
{
glyphname = one;
layers = (
{
layerId = "f82a6a9d-0b44-4d80-bd76-0945f084e1d5";
name = Fore;
shapes = (
{
closed = 1;
nodes = (
(28,35,o),
(29.5,75.5,q),
(31,116,o),
(32.5,167,q),
(34,218,o),
(36,274,q),
(38,330,o),
(39.5,381,q),
(41,432,o),
(42,472,q),
(43,512,o),
(44,532,q),
(42,554,o),
(52,560,q),
(62,566,o),
(74.5,566,q),
(87,566,o),
(96.5,564,q),
(106,562,o),
(110,548,q),
(94,34,l),
(92,16,o),
(66,8.5,q),
(40,1,o),
(28,16,q)
);
}
);
width = 131;
}
);
unicode = 49;
},
{
glyphname = two;
layers = (
{
layerId = "f82a6a9d-0b44-4d80-bd76-0945f084e1d5";
name = Fore;
shapes = (
{
closed = 1;
nodes = (
(571,167,o),
(571,142,q),
(571,117,o),
(549,105.5,q),
(527,94,o),
(499.5,89,q),
(472,84,o),
(448,83.5,q),
(424,83,o),
(417.5,81.5,q),
(411,80,o),
(388.5,73.5,q),
(366,67,o),
(335,58.5,q),
(304,50,o),
(268,40,q),
(155,10,o),
(88,10,q),
(54,10,o),
(42.5,20.5,q),
(31,31,o),
(38,50,q),
(113,116,o),
(194,220,q),
(315,375,o),
(315,462,q),
(315,479,o),
(310,494,q),
(299,525,o),
(253,534,q),
(209,534,o),
(181,516,q),
(153,498,o),
(128.5,476,q),
(104,454,o),
(78.5,436,q),
(53,418,o),
(16,418,q),
(17,451,o),
(43,482,q),
(95,546,o),
(190,574,q),
(224,585,o),
(244,585,q),
(264,585,o),
(274,584,q),
(313,580,o),
(341,556,q),
(369,532,o),
(374,482,q),
(374,341,o),
(242,169,q),
(206,122,o),
(171,82,q),
(182,81,o),
(205.5,81,q),
(229,81,o),
(270,92.5,q),
(311,104,o),
(357,120.5,q),
(403,137,o),
(448,152,q),
(493,167,o),
(538,167,q)
);
}
);
width = 586;
}
);
unicode = 50;
},
{
glyphname = three;
layers = (
{
layerId = "f82a6a9d-0b44-4d80-bd76-0945f084e1d5";
name = Fore;
shapes = (
{
closed = 1;
nodes = (
(482,447,o),
(386,366,q),
(362,347,o),
(345,332,q),
(468,330,o),
(492,274,q),
(497,261,o),
(497,247,q),
(497,233,o),
(489.5,209.5,q),
(482,186,o),
(458,154,q),
(434,122,o),
(400,92,q),
(329,30,o),
(250,6,q),
(223,-2,o),
(206.5,-2,q),
(190,-2,o),
(180,-1.5,q),
(170,-1,o),
(159,5,q),
(148,11,o),
(148,25,q),
(223,44,o),
(280,79,q),
(337,114,o),
(370,152,q),
(409,199,o),
(409,230,q),
(409,261,o),
(390,272,q),
(371,283,o),
(341,283,q),
(265,283,o),
(134,221,q),
(99,266,l),
(402,406,o),
(402,467,q),
(402,493,o),
(345,501,q),
(286,501,o),
(210.5,481,q),
(135,461,o),
(94,452,q),
(53,443,o),
(10,443,q),
(10,490,o),
(33,498,q),
(75,508,o),
(122,520,q),
(276,559,o),
(368.5,559,q),
(461,559,o),
(482,507,q)
);
}
);
width = 521;
}
);
unicode = 51;
},
{
glyphname = four;
layers = (
{
layerId = "f82a6a9d-0b44-4d80-bd76-0945f084e1d5";
name = Fore;
shapes = (
{
closed = 1;
nodes = (
(376,-15,o),
(373,-3,q),
(377,195,l),
(304,195,l),
(184,196,l),
(112,196,l),
(99,196,o),
(86,200,q),
(73,204,o),
(73,221,q),
(126,289,o),
(176,358,q),
(335,575,o),
(394,575,q),
(460,575,o),
(460,343,q),
(460,313,o),
(459,279,q),
(680,282,l),
(680,256,o),
(673.5,244,q),
(667,232,o),
(662,231,q),
(477,216,l),
(463,177,o),
(460,128,q),
(455,48,o),
(455,-6,q),
(397,-15,l)
);
},
{
closed = 1;
nodes = (
(355,452,o),
(323.5,423.5,q),
(292,395,o),
(262,366.5,q),
(232,338,o),
(208,309,q),
(184,280,o),
(178,249,q),
(185,249,o),
(209,249,q),
(233,249,o),
(278,254.5,q),
(323,260,o),
(377,266,q),
(377,482,l)
);
}
);
width = 697;
}
);
unicode = 52;
},
{
glyphname = five;
layers = (
{
layerId = "f82a6a9d-0b44-4d80-bd76-0945f084e1d5";
name = Fore;
shapes = (
{
closed = 1;
nodes = (
(34,358,l),
(41,416,o),
(50,498,q),
(62,598,l),
(66,611,o),
(74.5,613,q),
(83,615,o),
(98,615,q),
(113,615,o),
(120,607.5,q),
(127,600,o),
(127.5,589,q),
(128,578,o),
(125,564,q),
(122,550,o),
(122,537,q),
(192,537,o),
(261.5,552,q),
(331,567,o),
(400,585,q),
(469,603,o),
(538,618,q),
(607,633,o),
(677,633,q),
(687,633,o),
(695.5,630.5,q),
(704,628,o),
(709,614,q),
(705,602,o),
(695,594,q),
(685,586,o),
(661.5,578,q),
(638,570,o),
(598,561.5,q),
(558,553,o),
(495,539.5,q),
(432,526,o),
(341.5,507,q),
(251,488,o),
(128,460,q),
(128,332,l),
(160,335,o),
(201,342,q),
(277,355,o),
(317,355,q),
(357,355,o),
(383.5,354,q),
(410,353,o),
(444,340,q),
(517,312,o),
(526,225,q),
(526,162,o),
(491.5,118.5,q),
(457,75,o),
(405,49,q),
(307,0,o),
(177,0,q),
(149,0,o),
(137,6,q),
(125,12,o),
(125,32,q),
(125,52,o),
(141,70,q),
(157,88,o),
(177,88,q),
(177,70,l),
(295,70,o),
(347,86.5,q),
(399,103,o),
(429.5,132.5,q),
(460,162,o),
(460,206,q),
(460,250,o),
(442,270,q),
(424,290,o),
(398,300,q),
(358,316,o),
(307,316,q),
(256,316,o),
(230,308,q),
(204,300,o),
(179,290,q),
(112,265,o),
(77,265,q),
(61,265,l),
(27,265,o),
(27,289,q)
);
}
);
width = 725;
}
);
unicode = 53;
},
{
glyphname = six;
layers = (
{
layerId = "f82a6a9d-0b44-4d80-bd76-0945f084e1d5";
name = Fore;
shapes = (
{
closed = 1;
nodes = (
(22,287,o),
(22,309.5,q),
(22,332,o),
(35,375,q),
(48,418,o),
(71.5,459.5,q),
(95,501,o),
(126.5,538,q),
(158,575,o),
(195,604,q),
(275,665,o),
(355,665,q),
(369,665,o),
(378,660,q),
(387,655,o),
(387,644.5,q),
(387,634,o),
(387,630,q),
(267,608,o),
(186,506,q),
(105,405,o),
(105,282,q),
(105,242,o),
(124.5,199,q),
(144,156,o),
(160.5,135.5,q),
(177,115,o),
(197,115,q),
(213,128,o),
(233.5,149,q),
(254,170,o),
(279.5,194.5,q),
(305,219,o),
(335,243.5,q),
(365,268,o),
(398,288,q),
(472,332,o),
(547,334,q),
(581,334,o),
(601,304,q),
(620,275,o),
(620,240,q),
(605,119,o),
(506,52,q),
(425,-4,o),
(320,-4,q),
(255,-4,o),
(200,18,q),
(88,62,o),
(43,168,q),
(22,218,o),
(22,282,q)
);
},
{
closed = 1;
nodes = (
(554,267,o),
(522,267,q),
(490,267,o),
(451.5,243,q),
(413,219,o),
(376,187,q),
(328,147,o),
(262,76,q),
(280,73,o),
(301.5,73,q),
(323,73,o),
(360,78,q),
(397,83,o),
(442,103,q),
(487,123,o),
(519,155.5,q),
(551,188,o),
(554,233,q)
);
}
);
width = 642;
}
);
unicode = 54;
},
{
glyphname = seven;
layers = (
{
layerId = "f82a6a9d-0b44-4d80-bd76-0945f084e1d5";
name = Fore;
shapes = (
{
closed = 1;
nodes = (
(307,58,l),
(307,64,o),
(307,69,q),
(307,161,o),
(370,290,q),
(397,343,o),
(422,391,q),
(447,439,o),
(456,478,q),
(402,478,o),
(349,475,q),
(155,464,o),
(109.5,464,q),
(64,464,o),
(28,466,q),
(17,471,o),
(13.5,476,q),
(10,481,o),
(10,490,q),
(10,499,o),
(13.5,504,q),
(17,509,o),
(28,514,q),
(47,513,o),
(82,513,q),
(117,513,o),
(177,520,q),
(237,527,o),
(305.5,537.5,q),
(374,548,o),
(442,557,q),
(510,566,o),
(578,566,q),
(594,566,o),
(602,558,q),
(610,550,o),
(610,542.5,q),
(610,535,o),
(610,532,q),
(436,339,o),
(396,157,q),
(388,118,o),
(388,83,q),
(388,48,o),
(394,16,q),
(310,0,l)
);
}
);
width = 630;
}
);
unicode = 55;
},
{
glyphname = eight;
layers = (
{
layerId = "f82a6a9d-0b44-4d80-bd76-0945f084e1d5";
name = Fore;
shapes = (
{
closed = 1;
nodes = (
(588,541,o),
(587,497,q),
(586,453,o),
(537,398,q),
(595,375,o),
(611,356,q),
(627,337,o),
(632.5,316.5,q),
(638,296,o),
(638,266,q),
(638,198,o),
(602.5,147.5,q),
(567,97,o),
(513,64,q),
(459,31,o),
(394.5,15,q),
(330,-1,o),
(283,-1,q),
(236,-1,o),
(192.5,5.5,q),
(149,12,o),
(111,29,q),
(22,69,o),
(22,149,q),
(22,174,o),
(38,198.5,q),
(54,223,o),
(72.5,245,q),
(91,267,o),
(107,286.5,q),
(123,306,o),
(123,320.5,q),
(123,335,o),
(117.5,344.5,q),
(112,354,o),
(105,363,q),
(87,386,o),
(87,414,q),
(87,442,o),
(103,470,q),
(119,498,o),
(145.5,519.5,q),
(172,541,o),
(206,556.5,q),
(240,572,o),
(275,582,q),
(343,600,o),
(405,600,q),
(490,600,o),
(520.5,590,q),
(551,580,o),
(569.5,560.5,q)
);
},
{
closed = 1;
nodes = (
(103,93,o),
(171,66,q),
(218,48,o),
(284,48,q),
(350,48,o),
(400,62,q),
(450,76,o),
(488,104,q),
(573,165,o),
(573,268,q),
(549,349,o),
(422,349,q),
(334,349,o),
(247,310,q),
(164,272,o),
(126,219,q),
(106,191,o),
(103,160,q)
);
},
{
closed = 1;
nodes = (
(462,553,o),
(398,553,q),
(259,553,o),
(196,484,q),
(174,460,o),
(170,426,q),
(170,396,o),
(189,380.5,q),
(208,365,o),
(238,365,q),
(243,364,o),
(253.5,364,q),
(264,364,o),
(288,368.5,q),
(312,373,o),
(344,382,q),
(376,391,o),
(408.5,403.5,q),
(441,416,o),
(468,430,q),
(528,462,o),
(538,489,q),
(538,506,o),
(530,520,q),
(522,534,o),
(505,534,q)
);
}
);
width = 664;
}
);
unicode = 56;
},
{
glyphname = nine;
layers = (
{
layerId = "f82a6a9d-0b44-4d80-bd76-0945f084e1d5";
name = Fore;
shapes = (
{
closed = 1;
nodes = (
(234,2,o),
(224.5,15,q),
(215,28,o),
(215,46,q),
(311,103,o),
(352.5,146.5,q),
(394,190,o),
(416,233,q),
(438,276,o),
(442,331,q),
(432,332,o),
(415,332,q),
(398,332,o),
(367.5,327.5,q),
(337,323,o),
(302,317,q),
(222,304,o),
(199,304,q),
(176,304,o),
(153.5,305.5,q),
(131,307,o),
(100.5,319,q),
(70,331,o),
(44,358,q),
(30,377,o),
(30,392,q),
(30,466,o),
(131,538,q),
(213,597,o),
(294,613,q),
(314,617,o),
(331.5,617,q),
(349,617,o),
(365,612,q),
(482,576,o),
(515,475,q),
(527,438,o),
(527,412,q),
(527,386,o),
(525,355,q),
(523,324,o),
(506,271.5,q),
(489,219,o),
(460.5,171,q),
(432,123,o),
(397,86,q),
(321,4,o),
(247,0,q)
);
},
{
closed = 1;
nodes = (
(170,366,o),
(238,366,q),
(337,366,o),
(438,407,q),
(442,424,o),
(442,437,q),
(442,450,o),
(440,466.5,q),
(438,483,o),
(426,502,q),
(398,545,o),
(342,549,q),
(195,549,o),
(143,464,q),
(124,432,o),
(124,386,q)
);
}
);
width = 583;
}
);
unicode = 57;
},
{
glyphname = colon;
layers = (
{
layerId = "f82a6a9d-0b44-4d80-bd76-0945f084e1d5";
name = Fore;
shapes = (
{
closed = 1;
nodes = (
(77,141,o),
(90.5,155,q),
(104,169,o),
(121,169,q),
(138,169,o),
(147,158,q),
(156,147,o),
(156,134.5,q),
(156,122,o),
(146.5,111.5,q),
(137,101,o),
(129,101,q),
(121,101,o),
(114.5,101,q),
(108,101,o),
(92.5,106,q),
(77,111,o),
(77,126,q)
);
},
{
closed = 1;
nodes = (
(31,322,o),
(31,333,q),
(31,348,o),
(46,358,q),
(61,368,o),
(70,369,q),
(101,365,o),
(109.5,353.5,q),
(118,342,o),
(118,335,q),
(118,314,o),
(92,308,q),
(88,306,o),
(77.5,306,q),
(67,306,o),
(45,318,q)
);
}
);
width = 171;
}
);
unicode = 58;
},
{
glyphname = semicolon;
layers = (
{
layerId = "f82a6a9d-0b44-4d80-bd76-0945f084e1d5";
name = Fore;
shapes = (
{
closed = 1;
nodes = (
(96,117,o),
(96,85,q),
(96,53,o),
(92.5,16.5,q),
(89,-20,o),
(77,-56,q),
(49,-137,o),
(-22,-166,q),
(61,117,o),
(68,117,q)
);
},
{
closed = 1;
nodes = (
(26,314,o),
(27,327.5,q),
(28,341,o),
(39,350,q),
(50,359,o),
(62.5,359,q),
(75,359,o),
(85,350,q),
(95,341,o),
(96,328,q),
(97,298,o),
(78,298,q),
(47,298,o),
(32,310,q)
);
}
);
width = 127;
}
);
unicode = 59;
},
{
glyphname = less;
layers = (
{
layerId = "f82a6a9d-0b44-4d80-bd76-0945f084e1d5";
name = Fore;
shapes = (
{
closed = 1;
nodes = (
(116,254,o),
(159,288,q),
(202,322,o),
(246,356,q),
(354,441,o),
(401,467,q),
(414,467,o),
(420,445,q),
(423,436,o),
(423,427,q),
(423,418,o),
(419,412,q),
(184,233,l),
(199,225,o),
(227,212.5,q),
(255,200,o),
(289,183,q),
(370,143,o),
(431,103,q),
(430,102,o),
(427,95,q),
(424,88,o),
(420,80,q),
(411,59,o),
(409,59,q),
(379,78,o),
(323,97.5,q),
(267,117,o),
(233,130.5,q),
(199,144,o),
(170,158,q),
(102,192,o),
(84,229,q)
);
}
);
width = 487;
}
);
unicode = 60;
},
{
glyphname = equal;
layers = (
{
layerId = "f82a6a9d-0b44-4d80-bd76-0945f084e1d5";
name = Fore;
shapes = (
{
closed = 1;
nodes = (
(70,139,o),
(70,174,q),
(70,177,o),
(76.5,183.5,q),
(83,190,o),
(87,190,q),
(164,203,o),
(229,210,q),
(354,225,o),
(425,239,q),
(459,239,o),
(459,203,q),
(459,196,o),
(458,189,q),
(401,189,o),
(357.5,181,q),
(314,173,o),
(274,164,q),
(169,139,o),
(94,139,q)
);
},
{
closed = 1;
nodes = (
(96,269,l),
(66,269,o),
(64,287,q),
(84,323,l),
(87,326,o),
(166,335,q),
(330,352,o),
(362.5,358,q),
(395,364,o),
(401,364,q),
(407,364,o),
(414.5,359.5,q),
(422,355,o),
(422,345,q),
(422,320,o),
(405,309,q),
(114,270,l)
);
}
);
width = 504;
}
);
unicode = 61;
},
{
glyphname = greater;
layers = (
{
layerId = "f82a6a9d-0b44-4d80-bd76-0945f084e1d5";
name = Fore;
shapes = (
{
closed = 1;
nodes = (
(73,65,o),
(68,84,q),
(68,88,o),
(68,91,q),
(68,122,o),
(139,164,q),
(244,225,o),
(276,249.5,q),
(308,274,o),
(314,297,q),
(50,396,l),
(100,445,l),
(149,410,o),
(190.5,396,q),
(232,382,o),
(270.5,373.5,q),
(309,365,o),
(347,353.5,q),
(385,342,o),
(426,311,q),
(400,280,o),
(360.5,248.5,q),
(321,217,o),
(277.5,184,q),
(234,151,o),
(191.5,117,q),
(149,83,o),
(118,48,q)
);
}
);
width = 483;
}
);
unicode = 62;
},
{
glyphname = question;
layers = (
{
layerId = "f82a6a9d-0b44-4d80-bd76-0945f084e1d5";
name = Fore;
shapes = (
{
closed = 1;
nodes = (
(242,-2,o),
(242,33,q),
(242,68,o),
(278,68,q),
(285,70,o),
(293.5,70,q),
(302,70,o),
(311,59.5,q),
(320,49,o),
(320,33,q),
(320,17,o),
(311,6.5,q),
(302,-4,o),
(293.5,-4,q),
(285,-4,o),
(278,-2,q)
);
},
{
closed = 1;
nodes = (
(123,273,o),
(123,323,q),
(123,331,o),
(127,341,q),
(261,415,o),
(302,441,q),
(432,523,o),
(432,576,q),
(432,623,o),
(327,648,q),
(284,648,o),
(219,636.5,q),
(154,625,o),
(120,619.5,q),
(86,614,o),
(52,614,q),
(41,614,o),
(27.5,629,q),
(14,644,o),
(10,659,q),
(136,700,o),
(251,700,q),
(334,700,o),
(389,680,q),
(498,642,o),
(498,569,q),
(498,502,o),
(386,420,q),
(326,376,o),
(228,332,q),
(343,299,l),
(343,276,l),
(319,273,o),
(280,273,q)
);
}
);
width = 518;
}
);
unicode = 63;
},
{
glyphname = at;
layers = (
{
layerId = "f82a6a9d-0b44-4d80-bd76-0945f084e1d5";
name = Fore;
shapes = (
{
closed = 1;
nodes = (
(485,251,o),
(408,251,q),
(372,251,o),
(352,272,q),
(329,295,o),
(329,323.5,q),
(329,352,o),
(343,381,q),
(373,448,o),
(470,482,q),
(518,498,o),
(584,498,q),
(588,498,o),
(594,498.5,q),
(600,499,o),
(612.5,499,q),
(625,499,o),
(637.5,492.5,q),
(650,486,o),
(658,473,q),
(666,460,o),
(669.5,444,q),
(673,428,o),
(680,414,q),
(695,381,o),
(729,381,q),
(810,381,o),
(810,439,q),
(801,519,o),
(711,576,q),
(630,628,o),
(534,635,q),
(450,635,o),
(373,604.5,q),
(296,574,o),
(237.5,519.5,q),
(179,465,o),
(144,390,q),
(109,315,o),
(109,226,q),
(141,131,o),
(256,86,q),
(321,61,o),
(432,48,q),
(516,55,o),
(592.5,64.5,q),
(669,74,o),
(738,95,q),
(887,140,o),
(991,249,q),
(998,252,o),
(1005.5,252,q),
(1013,252,o),
(1026.5,246.5,q),
(1040,241,o),
(1042,225,q),
(1040,144,o),
(892,82,q),
(774,32,o),
(604,8,q),
(516,-5,o),
(469.5,-5,q),
(423,-5,o),
(411,-1,q),
(273,-1,o),
(170,36,q),
(84,66,o),
(46,129,q),
(27,162,o),
(27,207,q),
(27,304,o),
(67.5,390.5,q),
(108,477,o),
(175.5,542,q),
(243,607,o),
(330.5,644.5,q),
(418,682,o),
(513,682,q),
(649,682,o),
(746,624,q),
(796,593,o),
(828,544.5,q),
(860,496,o),
(860,438,q),
(860,380,o),
(830,352,q),
(784,308,o),
(711,308,q),
(638,308,o),
(592,342,q)
);
},
{
closed = 1;
nodes = (
(570,440,o),
(540,440,q),
(506,440,o),
(470,423,q),
(403,391,o),
(384,354,q),
(378,343,o),
(378,334.5,q),
(378,326,o),
(382,318,q),
(388,310,o),
(399,310,q),
(410,310,o),
(427,312,q),
(444,314,o),
(476,328,q),
(554,364,o),
(574,420,q)
);
}
);
width = 1068;
}
);
unicode = 64;
},
{
glyphname = A;
layers = (
{
layerId = "f82a6a9d-0b44-4d80-bd76-0945f084e1d5";
name = Fore;
shapes = (
{
closed = 1;
nodes = (
(577,366,l),
(594,366,o),
(609.5,363,q),
(625,360,o),
(625,341,q),
(632,301,o),
(578,302,q),
(563,303,o),
(550.5,304,q),
(538,305,o),
(530,304.5,q),
(522,304,o),
(523,299,q),
(533,270,o),
(544.5,234,q),
(556,198,o),
(570,162,q),
(606,73,o),
(638,34,q),
(621,13,o),
(598.5,-1,q),
(576,-15,o),
(574.5,-15,q),
(573,-15,o),
(572,-14,q),
(431,283,l),
(158,216,l),
(148,174,l),
(119,59,o),
(83,14,q),
(77,4,o),
(58,12,q),
(26,24,o),
(26,32,q),
(26,34,o),
(47,90,q),
(68,146,o),
(89.5,203.5,q),
(111,261,o),
(134.5,324,q),
(158,387,o),
(179,444,q),
(200,501,o),
(217,546.5,q),
(234,592,o),
(241,612.5,q),
(248,633,o),
(250.5,648.5,q),
(253,664,o),
(258,675,q),
(268,698,o),
(308,698,q),
(351,674,o),
(374.5,635.5,q),
(398,597,o),
(414.5,553,q),
(431,509,o),
(447,464,q),
(463,419,o),
(490,382,q),
(499,368,o),
(517,367,q),
(535,366,o),
(549,366,q)
);
},
{
closed = 1;
nodes = (
(291,521,o),
(263,457,q),
(235,393,o),
(218,357.5,q),
(201,322,o),
(189,292,q),
(257,292,o),
(356,332,q),
(381,343,o),
(404,352,q),
(357,553,o),
(299,582,q)
);
}
);
width = 656;
}
);
unicode = 65;
},
{
glyphname = B;
layers = (
{
layerId = "f82a6a9d-0b44-4d80-bd76-0945f084e1d5";
name = Fore;
shapes = (
{
closed = 1;
nodes = (
(139,680,o),
(205,680,q),
(271,680,o),
(322.5,675,q),
(374,670,o),
(426,656,q),
(536,625,o),
(562,572,q),
(569,561,o),
(569,546,q),
(569,502,o),
(492,451,q),
(441,417,o),
(346,382,q),
(579,369,o),
(662,314,q),
(708,285,o),
(708,246,q),
(708,192,o),
(632,134,q),
(549,72,o),
(420,31,q),
(301,-7,o),
(199,-7,q),
(121,-7,o),
(65,16,q),
(63,80,o),
(60,148,q),
(52,299,o),
(52,402.5,q),
(52,506,o),
(59,618,q),
(48,618,o),
(39,620.5,q),
(30,623,o),
(30,640,q),
(30,664,o),
(65,664,q)
);
},
{
closed = 1;
nodes = (
(316,75,o),
(419,104.5,q),
(522,134,o),
(567.5,168.5,q),
(613,203,o),
(613,235,q),
(613,277,o),
(553,302,q),
(488,328,o),
(380.5,328,q),
(273,328,o),
(131,299,q),
(155,66,l)
);
},
{
closed = 1;
nodes = (
(223,615,l),
(141,615,o),
(131,598,q),
(121,397,l),
(211,397,o),
(340,440,q),
(424,469,o),
(463,504,q),
(483,522,o),
(483,541,q),
(483,560,o),
(468.5,572.5,q),
(454,585,o),
(431.5,593,q),
(409,601,o),
(381.5,605.5,q),
(354,610,o),
(328,612,q),
(288,615,o),
(248,615,q)
);
}
);
width = 728;
}
);
unicode = 66;
},
{
glyphname = C;
layers = (
{
layerId = "f82a6a9d-0b44-4d80-bd76-0945f084e1d5";
name = Fore;
shapes = (
{
closed = 1;
nodes = (
(457,619,o),
(378,619,q),
(303,619,o),
(234,562,q),
(147,490,o),
(114,376,q),
(102,335,o),
(102,308,q),
(102,281,o),
(104,266,q),
(104,167,o),
(171,114,q),
(234,65,o),
(332,65,q),
(466,76,o),
(589,168,q),
(623,194,o),
(661,218,q),
(675,218,o),
(689.5,214,q),
(704,210,o),
(704,191,q),
(605,105,o),
(537,67,q),
(411,-1,o),
(309,-1,q),
(302,-1,o),
(296,-1,q),
(185,-1,o),
(106,68,q),
(22,141,o),
(22,250,q),
(22,332,o),
(51.5,407,q),
(81,482,o),
(132.5,539.5,q),
(184,597,o),
(254.5,631,q),
(325,665,o),
(406,665,q),
(475,665,o),
(496,646,q),
(522,623,o),
(522,555,q)
);
}
);
width = 725;
}
);
unicode = 67;
},
{
glyphname = D;
layers = (
{
layerId = "f82a6a9d-0b44-4d80-bd76-0945f084e1d5";
name = Fore;
shapes = (
{
closed = 1;
nodes = (
(179,640,o),
(301,640,q),
(524,640,o),
(606,530,q),
(638,488,o),
(638,423,q),
(639,414,o),
(639,405,q),
(639,305,o),
(522,202,q),
(415,105,o),
(258,46,q),
(154,6,o),
(86,6,q),
(58,6,o),
(38,14,q),
(38,638,l),
(52,638,l),
(75,638,o),
(89,630.5,q),
(103,623,o),
(105,614,q)
);
},
{
closed = 1;
nodes = (
(562,504,o),
(472,547,q),
(405,579,o),
(304,579,q),
(286,578,l),
(191,576,o),
(122,548,q),
(122,71,l),
(192,71,o),
(297,122,q),
(479,212,o),
(547,331,q),
(571,373,o),
(571,415,q)
);
}
);
width = 664;
}
);
unicode = 68;
},
{
glyphname = E;
layers = (
{
layerId = "f82a6a9d-0b44-4d80-bd76-0945f084e1d5";
name = Fore;
shapes = (
{
closed = 1;
nodes = (
(453,635,o),
(486,622,q),
(486,573,l),
(459,569,o),
(412,568.5,q),
(365,568,o),
(312,567,q),
(164,564,o),
(110,552,q),
(93,472,o),
(94,443,q),
(95,414,o),
(96,398,q),
(100,359,o),
(100,306,q),
(168,306,o),
(255.5,318,q),
(343,330,o),
(391,335.5,q),
(439,341,o),
(490,341,q),
(490,286,l),
(107,238,l),
(113,74,l),
(212,74,o),
(315.5,83.5,q),
(419,93,o),
(472.5,97.5,q),
(526,102,o),
(586,102,q),
(586,82,o),
(574,64,q),
(550,32,o),
(531,45,q),
(355,26,o),
(216.5,15,q),
(78,4,o),
(30,0,q),
(34,638,l),
(60,630,o),
(130,630,q),
(353,635,l)
);
}
);
width = 606;
}
);
unicode = 69;
},
{
glyphname = F;
layers = (
{
layerId = "f82a6a9d-0b44-4d80-bd76-0945f084e1d5";
name = Fore;
shapes = (
{
closed = 1;
nodes = (
(38,174,o),
(38,192,q),
(38,205,o),
(57,222,q),
(76,239,o),
(95,257,q),
(95,317,o),
(77,391.5,q),
(59,466,o),
(51,507,q),
(43,548,o),
(43,582,q),
(43,616,o),
(53.5,625,q),
(64,634,o),
(84,634,q),
(104,634,o),
(110,628.5,q),
(116,623,o),
(118,615,q),
(120,607,o),
(120.5,598,q),
(121,589,o),
(124,581,q),
(129,562,o),
(155,562,q),
(222,563,o),
(289,573.5,q),
(356,584,o),
(422,595,q),
(554,617,o),
(607.5,617,q),
(661,617,o),
(692,614,q),
(693,595,o),
(696,581,q),
(699,567,o),
(699,558,q),
(699,541,o),
(666,546,q),
(143,527,o),
(143,468,q),
(143,403,o),
(152,356.5,q),
(161,310,o),
(165.5,298,q),
(170,286,o),
(176,286,q),
(233,286,o),
(291.5,296,q),
(350,306,o),
(408.5,317.5,q),
(467,329,o),
(526,339,q),
(585,349,o),
(642,349,q),
(643,349,o),
(643,341.5,q),
(643,334,o),
(642,325,q),
(639,301,o),
(642,301,q),
(599,277,o),
(486,262,q),
(437,255,o),
(386,249,q),
(335,243,o),
(292,236,q),
(193,222,o),
(177,199,q),
(166,3,l),
(155,-8,o),
(141,-8,q),
(104,-5,l),
(99,-5,o),
(94,-5,q),
(94,166,l)
);
}
);
width = 709;
}
);
unicode = 70;
},
{
glyphname = G;
layers = (
{
layerId = "f82a6a9d-0b44-4d80-bd76-0945f084e1d5";
name = Fore;
shapes = (
{
closed = 1;
nodes = (
(496,134,l),
(401,69,o),
(364,48,q),
(278,1,o),
(213,1,q),
(135,1,o),
(79,58,q),
(22,117,o),
(22,193,q),
(27,273,o),
(56,355,q),
(116,529,o),
(255,610,q),
(324,651,o),
(414,651,q),
(416,651,o),
(418,651,q),
(445,652,l),
(491,652,o),
(487,616,q),
(407,612,o),
(337,579,q),
(267,546,o),
(215.5,490.5,q),
(164,435,o),
(134.5,361,q),
(105,287,o),
(105,210,q),
(105,133,o),
(145,99,q),
(185,65,o),
(248,65,q),
(302,65,o),
(398,112,q),
(459,142,o),
(489,180,q),
(504,198,o),
(504,218,q),
(504,366,l),
(474,366,o),
(364.5,343,q),
(255,320,o),
(238,317,q),
(233,320,o),
(226,323.5,q),
(219,327,o),
(218,334,q),
(216,349,o),
(262,380,q),
(273,386,o),
(394,403.5,q),
(515,421,o),
(548,426,q),
(581,431,o),
(603,434,q),
(613,432,o),
(628,434.5,q),
(643,437,o),
(656,436,q),
(688,435,o),
(686,401,q),
(603,367,l),
(584,306,o),
(584,137,q),
(586,-12,l),
(586,-32,o),
(586,-49,q),
(556,-64,o),
(528,-64,q),
(500,-64,o),
(496,-49,q)
);
}
);
width = 709;
}
);
unicode = 71;
},
{
glyphname = H;
layers = (
{
layerId = "f82a6a9d-0b44-4d80-bd76-0945f084e1d5";
name = Fore;
shapes = (
{
closed = 1;
nodes = (
(152,248,o),
(152,185.5,q),
(152,123,o),
(171,34,q),
(92,-6,l),
(56,266,l),
(21,271,o),
(21,290,q),
(21,304,o),
(37.5,323,q),
(54,342,o),
(62,354.5,q),
(70,367,o),
(71.5,382.5,q),
(73,398,o),
(76,438,q),
(79,478,o),
(81.5,523,q),
(84,568,o),
(86.5,608,q),
(89,648,o),
(89,664,q),
(111,686,o),
(121,691,q),
(146,704,o),
(155,681,q),
(149,366,l),
(396,366,o),
(446,398,q),
(446,714,l),
(452,731,o),
(502,731,q),
(513,731,o),
(520,730,q),
(520,711,o),
(521.5,672.5,q),
(523,634,o),
(524.5,585,q),
(526,536,o),
(528,481.5,q),
(530,427,o),
(532,378,q),
(535,276,o),
(537,228,q),
(544,108,o),
(586,34,q),
(541,16,o),
(487,16,q),
(441,130,o),
(438,315,q),
(372,317,o),
(348,317,q),
(324,317,o),
(294,314,q),
(232,310,o),
(155,282,q)
);
}
);
width = 620;
}
);
unicode = 72;
},
{
glyphname = I;
layers = (
{
layerId = "f82a6a9d-0b44-4d80-bd76-0945f084e1d5";
name = Fore;
shapes = (
{
closed = 1;
nodes = (
(105,-1,o),
(81,-1,q),
(63,-1,o),
(38,16,q),
(26,43,o),
(26,145,q),
(26,247,o),
(28,313.5,q),
(30,380,o),
(32,436,q),
(38,558,o),
(38,565,q),
(67,582,o),
(86,582,q),
(105,582,o),
(105,565,q),
(105,16,l)
);
}
);
width = 155;
}
);
unicode = 73;
},
{
glyphname = J;
layers = (
{
layerId = "f82a6a9d-0b44-4d80-bd76-0945f084e1d5";
name = Fore;
shapes = (
{
closed = 1;
nodes = (
(426,516,l),
(426,561,o),
(428.5,595.5,q),
(431,630,o),
(443,630,q),
(510,630,l),
(510,614,o),
(513,568,q),
(516,522,o),
(517,475.5,q),
(518,429,o),
(518,396,q),
(518,363,o),
(517,310.5,q),
(516,258,o),
(507,195,q),
(486,50,o),
(427,16,q),
(382,-9,o),
(284,4,q),
(185,18,o),
(110,62,q),
(22,113,o),
(9,182,q),
(9,205,o),
(24,222,q),
(51,254,o),
(73,254,q),
(74,197,o),
(104,160,q),
(174,76,o),
(329,76,q),
(355,76,o),
(380,79,q),
(429,105,o),
(429,327,q)
);
}
);
width = 542;
}
);
unicode = 74;
},
{
glyphname = K;
layers = (
{
layerId = "f82a6a9d-0b44-4d80-bd76-0945f084e1d5";
name = Fore;
shapes = (
{
closed = 1;
nodes = (
(43,19,o),
(45.5,27,q),
(48,35,o),
(50.5,68,q),
(53,101,o),
(54.5,147.5,q),
(56,194,o),
(57.5,249.5,q),
(59,305,o),
(60.5,363,q),
(62,421,o),
(64,476.5,q),
(66,532,o),
(70,578,q),
(79,678,o),
(94,697,q),
(102,720,o),
(148,720,q),
(148,720,o),
(162,720,q),
(162,682,o),
(153.5,560,q),
(145,438,o),
(144,415,q),
(209,448,o),
(269.5,486.5,q),
(330,525,o),
(382.5,557.5,q),
(435,590,o),
(478,611.5,q),
(521,633,o),
(542,633,q),
(577,633,o),
(577,606,q),
(577,585,o),
(545,559.5,q),
(513,534,o),
(465,506.5,q),
(417,479,o),
(360.5,451,q),
(304,423,o),
(256,396.5,q),
(208,370,o),
(176,347,q),
(144,324,o),
(144,307,q),
(162,296,o),
(203.5,277.5,q),
(245,259,o),
(296.5,235.5,q),
(348,212,o),
(403.5,185.5,q),
(459,159,o),
(505,132,q),
(609,73,o),
(609,34,q),
(609,21,o),
(592,16,q),
(585,14,o),
(578,14,q),
(568,14,l),
(520,14,o),
(478,37,q),
(436,60,o),
(388.5,92,q),
(341,124,o),
(281,158.5,q),
(221,193,o),
(136,216,q),
(136,16,l),
(134,12,o),
(118,7,q),
(95,0,o),
(69,0,q),
(43,0,o),
(43,15,q)
);
}
);
width = 620;
}
);
unicode = 75;
},
{
glyphname = L;
layers = (
{
layerId = "f82a6a9d-0b44-4d80-bd76-0945f084e1d5";
name = Fore;
shapes = (
{
closed = 1;
nodes = (
(78,686,l),
(158,683,l),
(149,97,l),
(676,82,l),
(692,77,o),
(692,65,q),
(692,53,o),
(677,40,q),
(648,14,o),
(611,14,q),
(602,14,o),
(592,16,q),
(55,21,l),
(80,114,o),
(80,437,q)
);
}
);
width = 709;
}
);
unicode = 76;
},
{
glyphname = M;
layers = (
{
layerId = "f82a6a9d-0b44-4d80-bd76-0945f084e1d5";
name = Fore;
shapes = (
{
closed = 1;
nodes = (
(127,94,l),
(127,88,o),
(126.5,72,q),
(126,56,o),
(114.5,43.5,q),
(103,31,o),
(86.5,31,q),
(70,31,o),
(61,32,q),
(28,32,o),
(28,61,q),
(28,85,o),
(50,254.5,q),
(72,424,o),
(78,473,q),
(84,522,o),
(88.5,555.5,q),
(93,589,o),
(95,605,q),
(97,621,o),
(101,637,q),
(105,653,o),
(113,663,q),
(128,682,o),
(171,682,q),
(243,646,o),
(319,478,q),
(373,358,o),
(391,326,q),
(409,294,o),
(426,282,q),
(626,630,l),
(647,645,o),
(658,645,q),
(690,645,o),
(707,616,q),
(724,587,o),
(735.5,545.5,q),
(747,504,o),
(755.5,454,q),
(764,404,o),
(770.5,349.5,q),
(777,295,o),
(783,243,q),
(797,118,o),
(804.5,86,q),
(812,54,o),
(812,40.5,q),
(812,27,o),
(803,14.5,q),
(794,2,o),
(778,2,q),
(762,2,o),
(746,14.5,q),
(730,27,o),
(726.5,45.5,q),
(723,64,o),
(719.5,94,q),
(716,124,o),
(711,161.5,q),
(706,199,o),
(701,240.5,q),
(696,282,o),
(691,320,q),
(686,358,o),
(682,387.5,q),
(678,417,o),
(676,432,q),
(676,452,o),
(675,469,q),
(674,486,o),
(667,490,q),
(660,494,o),
(645.5,480.5,q),
(631,467,o),
(605,426,q),
(549,339,o),
(443,133,q),
(429,108,o),
(406,122,q),
(379,137,o),
(360,199,q),
(176,590,l),
(152,542,o),
(132,272,q),
(129,239,o),
(128,216,q),
(123,191,o),
(123,167,q)
);
}
);
width = 847;
}
);
unicode = 77;
},
{
glyphname = N;
layers = (
{
layerId = "f82a6a9d-0b44-4d80-bd76-0945f084e1d5";
name = Fore;
shapes = (
{
closed = 1;
nodes = (
(608,49,o),
(583,-3,q),
(510,3,l),
(455,98,o),
(325,270,q),
(274,338,o),
(223.5,405,q),
(173,472,o),
(131,538,q),
(111,449,o),
(111,182,q),
(111,80,o),
(107,10,q),
(88,-8,o),
(65.5,-8,q),
(43,-8,o),
(34,-3.5,q),
(25,1,o),
(25,11.5,q),
(25,22,o),
(27.5,44.5,q),
(30,67,o),
(33.5,120,q),
(37,173,o),
(40,232,q),
(48,386,o),
(48,497.5,q),
(48,609,o),
(46,681,q),
(68,701,o),
(80,710,q),
(92,719,o),
(107,709.5,q),
(122,700,o),
(145.5,668.5,q),
(169,637,o),
(212,575,q),
(359,366,o),
(501,183,q),
(520,681,l),
(531,701,o),
(542,708.5,q),
(553,716,o),
(571,716,q),
(606,716,o),
(606,652,q),
(605,615,l),
(608,353,l)
);
}
);
width = 642;
}
);
unicode = 78;
},
{
glyphname = O;
layers = (
{
layerId = "f82a6a9d-0b44-4d80-bd76-0945f084e1d5";
name = Fore;
shapes = (
{
closed = 1;
nodes = (
(22,222,o),
(22,295,q),
(22,368,o),
(45.5,424.5,q),
(69,481,o),
(110,522,q),
(197,607,o),
(328,607,q),
(465,607,o),
(554,544,q),
(654,472,o),
(654,338,q),
(654,172,o),
(577.5,93,q),
(501,14,o),
(339,14,q),
(114,14,o),
(46,168,q)
);
},
{
closed = 1;
nodes = (
(104,79,o),
(342,79,q),
(459,79,o),
(532,149,q),
(605,218,o),
(605,330,q),
(605,435,o),
(518,490,q),
(444,538,o),
(331,538,q),
(241,538,o),
(172,473,q),
(104,408,o),
(104,315,q)
);
}
);
width = 686;
}
);
unicode = 79;
},
{
glyphname = P;
layers = (
{
layerId = "f82a6a9d-0b44-4d80-bd76-0945f084e1d5";
name = Fore;
shapes = (
{
closed = 1;
nodes = (
(38,0,l),
(38,233,l),
(43,308,o),
(46,366,q),
(49,424,o),
(57,466,q),
(65,508,o),
(83,536.5,q),
(101,565,o),
(137,582,q),
(202,614,o),
(376,614,q),
(451,614,o),
(503,599.5,q),
(555,585,o),
(580,572,q),
(637,544,o),
(637,494,q),
(637,444,o),
(608.5,403.5,q),
(580,363,o),
(534.5,333.5,q),
(489,304,o),
(432,285,q),
(375,266,o),
(318,254,q),
(216,234,o),
(122,234,q),
(118,10,l),
(118,-2,o),
(83,-2,q)
);
},
{
closed = 1;
nodes = (
(121,297,o),
(164,297,q),
(170,297,o),
(185,297.5,q),
(200,298,o),
(237.5,300.5,q),
(275,303,o),
(317,310.5,q),
(359,318,o),
(401.5,330,q),
(444,342,o),
(478,360,q),
(555,402,o),
(555,467,q),
(540,532,o),
(436,550,q),
(405,556,o),
(380.5,556,q),
(356,556,o),
(322.5,553.5,q),
(289,551,o),
(245,538,q),
(201,525,o),
(171,503,q),
(141,481,o),
(138,452,q),
(137,440,o),
(133,424,q),
(121,373,o),
(121,347,q)
);
}
);
width = 653;
}
);
unicode = 80;
},
{
glyphname = Q;
layers = (
{
layerId = "f82a6a9d-0b44-4d80-bd76-0945f084e1d5";
name = Fore;
shapes = (
{
closed = 1;
nodes = (
(27,308,o),
(49,380.5,q),
(71,453,o),
(114,509,q),
(157,565,o),
(220,599,q),
(283,633,o),
(365,633,q),
(377,634,o),
(389,634,q),
(519,634,o),
(593,556,q),
(660,485,o),
(660,369,q),
(660,255,o),
(592,158,q),
(591,153,o),
(591,142.5,q),
(591,132,o),
(605.5,121,q),
(620,110,o),
(641.5,101,q),
(663,92,o),
(678,82,q),
(693,72,o),
(693,63.5,q),
(693,55,o),
(692,50,q),
(681,42,o),
(662,37.5,q),
(643,33,o),
(636.5,34.5,q),
(630,36,o),
(619,43.5,q),
(608,51,o),
(598,60,q),
(571,81,o),
(551,84,q),
(513,48,o),
(434,22,q),
(234,-41,o),
(108,65,q),
(27,134,o),
(27,244,q)
);
},
{
closed = 1;
nodes = (
(393,65,o),
(418,70,q),
(472,81,o),
(493,116,q),
(310,282,l),
(309,283,o),
(309,285,q),
(309,290,l),
(309,308,o),
(323,312.5,q),
(337,317,o),
(357.5,317,q),
(378,317,o),
(402.5,301,q),
(427,285,o),
(450,263.5,q),
(473,242,o),
(495.5,219,q),
(518,196,o),
(542,182,q),
(593,260,o),
(594,352,q),
(595,380,o),
(595,415,q),
(590,451,o),
(578,480,q),
(554,541,o),
(457,560,q),
(410,570,o),
(368,570,q),
(326,570,o),
(318,570,q),
(256,570,o),
(204,512,q),
(163,465,o),
(134,382,q),
(109,315,o),
(109,258,q),
(109,154,o),
(168,109.5,q),
(227,65,o),
(333,65,q)
);
}
);
width = 730;
}
);
unicode = 81;
},
{
glyphname = R;
layers = (
{
layerId = "f82a6a9d-0b44-4d80-bd76-0945f084e1d5";
name = Fore;
shapes = (
{
closed = 1;
nodes = (
(173,647,o),
(317,647,q),
(407,647,o),
(468,629,q),
(529,611,o),
(559.5,591,q),
(590,571,o),
(590,547,q),
(590,492,o),
(462,438,q),
(443,429,o),
(362.5,401.5,q),
(282,374,o),
(254,364,q),
(193,341,o),
(173,328,q),
(173,323,o),
(177,319.5,q),
(181,316,o),
(196,307.5,q),
(211,299,o),
(241,283.5,q),
(271,268,o),
(324,239,q),
(482,153,o),
(649,55,q),
(657,49,o),
(670,38.5,q),
(683,28,o),
(683,15.5,q),
(683,3,o),
(675,-2,q),
(667,-7,o),
(656,-9.5,q),
(645,-12,o),
(633,-12,q),
(613,-12,l),
(593,-12,o),
(529.5,31,q),
(466,74,o),
(419.5,106,q),
(373,138,o),
(325,168,q),
(212,241,o),
(146,263,q),
(146,34,l),
(146,14,o),
(112,14,q),
(101,14,l),
(80,14,o),
(70,35,q),
(56,67,o),
(56,153,q),
(59,354,l),
(59,502,o),
(46,614,q),
(70,655,o),
(105,611,q),
(113,601,o),
(118,594,q)
);
},
{
closed = 1;
nodes = (
(391,583,l),
(165,583,o),
(131,531,q),
(121,517,o),
(121,495.5,q),
(121,474,o),
(123,458,q),
(128,417,o),
(146,399,q),
(149,398,o),
(156.5,398,q),
(164,398,o),
(184.5,402,q),
(205,406,o),
(239.5,416.5,q),
(274,427,o),
(313,442,q),
(352,457,o),
(388,473,q),
(501,524,o),
(501,556,q),
(501,574,o),
(456,582,q)
);
}
);
width = 730;
}
);
unicode = 82;
},
{
glyphname = S;
layers = (
{
layerId = "f82a6a9d-0b44-4d80-bd76-0945f084e1d5";
name = Fore;
shapes = (
{
closed = 1;
nodes = (
(46,135,o),
(54.5,140.5,q),
(63,146,o),
(66,149,q),
(71,58,o),
(189,58,q),
(282,58,o),
(406,116,q),
(494,156,o),
(524,198,q),
(534,211,o),
(534,219.5,q),
(534,228,o),
(531,233,q),
(116,326,l),
(98,330,o),
(81,343,q),
(50,365,o),
(50,383,q),
(50,452,o),
(148,508,q),
(256,569,o),
(437,600,q),
(478,607,o),
(498,608,q),
(504,606,o),
(516.5,604.5,q),
(529,603,o),
(542,600,q),
(573,593,o),
(568,574,q),
(568,540,o),
(438,520,q),
(270,495,o),
(228.5,478,q),
(187,461,o),
(168.5,443,q),
(150,425,o),
(149,400,q),
(149,395,o),
(172,389,q),
(195,383,o),
(227,374.5,q),
(259,366,o),
(310,352,q),
(434,318,o),
(614,266,q),
(624,244,o),
(624,225,q),
(624,172,o),
(562,123,q),
(492,68,o),
(368,30,q),
(265,-1,o),
(204,-1,q),
(153,-1,o),
(107,17,q),
(61,35,o),
(38,52,q),
(15,69,o),
(15,87.5,q),
(15,106,o),
(30.5,120.5,q)
);
}
);
width = 658;
}
);
unicode = 83;
},
{
glyphname = T;
layers = (
{
layerId = "f82a6a9d-0b44-4d80-bd76-0945f084e1d5";
name = Fore;
shapes = (
{
closed = 1;
nodes = (
(401,493,l),
(366,493,o),
(320,486,q),
(318,447,o),
(312,385,q),
(291,165,o),
(291,99.5,q),
(291,34,o),
(293,7,q),
(199,0,l),
(230,494,l),
(17,506,l),
(9,506,o),
(4.5,519,q),
(0,532,o),
(0,543,q),
(0,554,o),
(9,567,q),
(18,580,o),
(30,580,q),
(103,577,o),
(177,570,q),
(314,558,o),
(410,558,q),
(472,560,l),
(545,562,o),
(617,576,q),
(633,573,o),
(637,526,q),
(638,516,o),
(638,510,q),
(572,491,o),
(490,491,q)
);
}
);
width = 638;
}
);
unicode = 84;
},
{
glyphname = U;
layers = (
{
layerId = "f82a6a9d-0b44-4d80-bd76-0945f084e1d5";
name = Fore;
shapes = (
{
closed = 1;
nodes = (
(526,-2,o),
(495,-2,q),
(480,-2,o),
(467.5,2.5,q),
(455,7,o),
(452,10,q),
(462,138,l),
(370,59,o),
(328,39,q),
(262,6,o),
(193,6,q),
(180,6,o),
(166,7,q),
(20,23,o),
(20,194,q),
(20,272,o),
(60,459,q),
(73,517,o),
(77,565,q),
(80,566,o),
(90,566,q),
(90,566,o),
(102,566,q),
(107,567,o),
(111,567,q),
(143,567,o),
(143,519,q),
(143,486,o),
(130,437,q),
(90,276,o),
(90,214,q),
(90,149,o),
(124,112,q),
(146,88,o),
(193,83,q),
(199,83,o),
(205,83,q),
(368,83,o),
(419,240,q),
(449,332,o),
(454,462,q),
(457,522,o),
(459,581,q),
(470,611,o),
(489,611,q),
(508,611,o),
(531,594,q),
(534,536,o),
(534,480,q),
(524,98,l),
(524,57,o),
(526,16,q)
);
}
);
width = 575;
}
);
unicode = 85;
},
{
glyphname = V;
layers = (
{
layerId = "f82a6a9d-0b44-4d80-bd76-0945f084e1d5";
name = Fore;
shapes = (
{
closed = 1;
nodes = (
(234,88,o),
(161,230.5,q),
(88,373,o),
(64,420,q),
(11,529,o),
(11,548,q),
(11,561,o),
(62,581,q),
(97,516,o),
(127.5,451.5,q),
(158,387,o),
(188,330,q),
(259,191,o),
(304,138,q),
(320,154,o),
(376,274,q),
(458,447,l),
(524,587,o),
(543,630,q),
(578,672,o),
(602,672,q),
(626,672,o),
(626,630,q),
(342,7,l),
(325,-4,o),
(298.5,-4,q),
(272,-4,o),
(261,16,q)
);
}
);
width = 642;
}
);
unicode = 86;
},
{
glyphname = W;
layers = (
{
layerId = "f82a6a9d-0b44-4d80-bd76-0945f084e1d5";
name = Fore;
shapes = (
{
closed = 1;
nodes = (
(813,328,o),
(879,758,q),
(942,758,o),
(945,719,q),
(946,707,o),
(946.5,702,q),
(947,697,o),
(943,667.5,q),
(939,638,o),
(931.5,585,q),
(924,532,o),
(913,462,q),
(902,392,o),
(888,316,q),
(854,137,o),
(818,14,q),
(782,-11,o),
(762,6,q),
(753,15,o),
(746,30.5,q),
(739,46,o),
(730,66,q),
(717,83,o),
(682,156,q),
(647,229,o),
(625.5,272,q),
(604,315,o),
(584,352,q),
(538,435,o),
(507,449,q),
(471,393,o),
(379,142,q),
(363,98,o),
(350,60.5,q),
(337,23,o),
(328,0,q),
(266,3,l),
(16,581,l),
(14,586,o),
(14,591,q),
(14,596,o),
(17.5,601,q),
(21,606,o),
(30,610,q),
(47,616,o),
(64,616,q),
(81,616,o),
(88.5,609.5,q),
(96,603,o),
(100.5,593,q),
(105,583,o),
(108,571,q),
(111,559,o),
(119.5,540,q),
(128,521,o),
(144.5,484,q),
(161,447,o),
(180,406,q),
(199,365,o),
(218,324.5,q),
(237,284,o),
(254,250,q),
(290,175,o),
(299,166,q),
(415,452,o),
(442,505.5,q),
(469,559,o),
(476,571,q),
(487,588,o),
(493,588,q),
(536,588,o),
(638,396,q),
(666,345,o),
(690,298,q),
(749,184,o),
(763,166,q)
);
}
);
width = 963;
}
);
unicode = 87;
},
{
glyphname = X;
layers = (
{
layerId = "f82a6a9d-0b44-4d80-bd76-0945f084e1d5";
name = Fore;
shapes = (
{
closed = 1;
nodes = (
(272,204,o),
(249.5,168,q),
(227,132,o),
(203.5,98,q),
(180,64,o),
(154,39,q),
(128,14,o),
(97.5,14,q),
(67,14,o),
(55,22.5,q),
(43,31,o),
(43,44.5,q),
(43,58,o),
(44,66,q),
(234,291,l),
(182,355,o),
(146.5,400,q),
(111,445,o),
(88,474,q),
(65,503,o),
(52.5,519.5,q),
(40,536,o),
(34.5,543.5,q),
(29,551,o),
(27,555,q),
(27,575,o),
(54,583,q),
(77,590,o),
(94,581,q),
(286,349,l),
(525,631,l),
(583,584,l),
(343,299,l),
(377,253,o),
(420.5,220.5,q),
(464,188,o),
(502,159.5,q),
(540,131,o),
(565.5,102,q),
(591,73,o),
(591,34,q),
(588,11,o),
(570,3,q),
(566,1,o),
(556,1,q),
(546,1,o),
(526,16,q),
(298,225,l)
);
}
);
width = 614;
}
);
unicode = 88;
},
{
glyphname = Y;
layers = (
{
layerId = "f82a6a9d-0b44-4d80-bd76-0945f084e1d5";
name = Fore;
shapes = (
{
closed = 1;
nodes = (
(262,-18,o),
(244,-8,q),
(209,13,o),
(216,29,q),
(228,50,o),
(247,113,q),
(274,203,l),
(288,246,o),
(302,298,q),
(35,570,l),
(28,579,o),
(28,586,q),
(28,593,o),
(36,597,q),
(49,603,o),
(67.5,603,q),
(86,603,o),
(105.5,597,q),
(125,591,o),
(154,567,q),
(211,519,o),
(341,364,q),
(400,536,o),
(426,585.5,q),
(452,635,o),
(467.5,649.5,q),
(483,664,o),
(495.5,665,q),
(508,666,o),
(517,664,q),
(526,662,o),
(530,650,q),
(499,584,o),
(470.5,500.5,q),
(442,417,o),
(412,328,q),
(333,92,o),
(278,-18,q)
);
}
);
width = 547;
}
);
unicode = 89;
},
{
glyphname = Z;
layers = (
{
layerId = "f82a6a9d-0b44-4d80-bd76-0945f084e1d5";
name = Fore;
shapes = (
{
closed = 1;
nodes = (
(523,-3,o),
(316,-3,q),
(28,-3,o),
(28,34,q),
(28,42,o),
(38,50,q),
(470,532,l),
(430,534,o),
(404.5,534,q),
(379,534,o),
(347,533.5,q),
(315,533,o),
(265,529,q),
(118,517,o),
(62,514,q),
(47,514,o),
(43.5,523,q),
(40,532,o),
(38,565,q),
(261,589,o),
(547,599,q),
(561,599,o),
(574,595,q),
(587,591,o),
(587,574,q),
(559,496,o),
(394,320,q),
(200,114,o),
(169,73,q),
(224,62,o),
(298,62,q),
(372,62,o),
(448,66.5,q),
(524,71,o),
(606,78,q),
(688,85,o),
(762,90,q),
(770,16,l)
);
}
);
width = 803;
}
);
unicode = 90;
},
{
glyphname = bracketleft;
layers = (
{
layerId = "f82a6a9d-0b44-4d80-bd76-0945f084e1d5";
name = Fore;
shapes = (
{
closed = 1;
nodes = (
(64,784,o),
(103.5,793,q),
(143,802,o),
(184,811,q),
(287,834,o),
(334,834,q),
(334,821,o),
(336.5,807,q),
(339,793,o),
(328,787,q),
(310,782,o),
(276,775.5,q),
(242,769,o),
(206,760,q),
(118,740,o),
(93,722,q),
(92,690,o),
(92,644,q),
(92,598,o),
(98,525,q),
(104,452,o),
(114,364,q),
(124,276,o),
(133,188,q),
(142,100,o),
(142,7,q),
(397,42,l),
(397,37,o),
(399.5,26,q),
(402,15,o),
(404,2.5,q),
(406,-10,o),
(406,-20,q),
(406,-30,o),
(401,-31,q),
(65,-84,l),
(31,779,l)
);
}
);
width = 435;
}
);
unicode = 91;
},
{
glyphname = backslash;
layers = (
{
layerId = "f82a6a9d-0b44-4d80-bd76-0945f084e1d5";
name = Fore;
shapes = (
{
closed = 1;
nodes = (
(200,270,o),
(28,540,q),
(0,585,o),
(0,587,q),
(0,588,o),
(10,573,q),
(10,592,o),
(24.5,596,q),
(39,600,o),
(54,600,q),
(112,543,o),
(163,469,q),
(214,395,o),
(265.5,318,q),
(317,241,o),
(372.5,168.5,q),
(428,96,o),
(494,42,q),
(494,22,o),
(477,10,q),
(460,-2,o),
(442,-2,q)
);
}
);
width = 514;
}
);
unicode = 92;
},
{
glyphname = bracketright;
layers = (
{
layerId = "f82a6a9d-0b44-4d80-bd76-0945f084e1d5";
name = Fore;
shapes = (
{
closed = 1;
nodes = (
(419,348,o),
(459,-69,q),
(450,-70,o),
(421,-72.5,q),
(392,-75,o),
(353.5,-78.5,q),
(315,-82,o),
(271,-85,q),
(227,-88,o),
(188,-91,q),
(111,-97,o),
(83,-97,q),
(80,-97,o),
(80,-42,q),
(130,-39,o),
(176,-39,q),
(196,-40,l),
(305,-40,o),
(346,8,q),
(370,35,o),
(370,102.5,q),
(370,170,o),
(366.5,253.5,q),
(363,337,o),
(356,422,q),
(343,595,o),
(321,749,q),
(310,750,o),
(291,750,q),
(272,750,o),
(241.5,744,q),
(211,738,o),
(176,729,q),
(79,704,o),
(31,704,q),
(28,704,o),
(20,709,q),
(0,723,o),
(0,739,q),
(0,755,o),
(9,766,q),
(9,768,o),
(135,786,q),
(261,804,o),
(296.5,808.5,q),
(332,813,o),
(358,817,q),
(388,819,l),
(418,818,o),
(423,800,q),
(419,734,o),
(419,658,q)
);
}
);
width = 554;
}
);
unicode = 93;
},
{
glyphname = asciicircum;
layers = (
{
layerId = "f82a6a9d-0b44-4d80-bd76-0945f084e1d5";
name = Fore;
shapes = (
{
closed = 1;
nodes = (
(18,520,o),
(18,539,q),
(18,558,o),
(28.5,576,q),
(39,594,o),
(58,614,q),
(100,658,o),
(162,687,q),
(213,654,o),
(230,640,q),
(258,615,o),
(294,559,q),
(300,547,o),
(300,536.5,q),
(300,526,o),
(296,520,q),
(285,504,o),
(260,519,q),
(223,546,o),
(216.5,552,q),
(210,558,o),
(198,571,q),
(186,584,o),
(155,614,q),
(94,572,o),
(72,536,q),
(65,524,o),
(59,510,q),
(41,510,o),
(29.5,515,q)
);
}
);
width = 314;
}
);
unicode = 94;
},
{
glyphname = underscore;
layers = (
{
layerId = "f82a6a9d-0b44-4d80-bd76-0945f084e1d5";
name = Fore;
shapes = (
{
closed = 1;
nodes = (
(32,18,l),
(32,38,l),
(121,74,o),
(315,85,q),
(534,97,o),
(625,117,q),
(639,117,o),
(651.5,113,q),
(664,109,o),
(664,94,q),
(664,73,o),
(647,50,q),
(306,41,o),
(33,0,q)
);
}
);
width = 703;
}
);
unicode = 95;
},
{
glyphname = grave;
layers = (
{
layerId = "f82a6a9d-0b44-4d80-bd76-0945f084e1d5";
name = Fore;
shapes = (
{
closed = 1;
nodes = (
(47,616,o),
(62,616,q),
(71,616,o),
(84,602,q),
(151,537,l),
(134,494,l),
(68,539,o),
(56,559,q),
(52,567,o),
(49.5,575,q),
(47,583,o),
(47,588,q)
);
}
);
width = 176;
}
);
unicode = 96;
},
{
glyphname = a;
layers = (
{
layerId = "f82a6a9d-0b44-4d80-bd76-0945f084e1d5";
name = Fore;
shapes = (
{
closed = 1;
nodes = (
(345,48,o),
(220,20,q),
(191,14,o),
(167.5,14,q),
(144,14,o),
(128.5,14.5,q),
(113,15,o),
(94,19,q),
(75,23,o),
(59,32,q),
(22,53,o),
(22,91,q),
(18,109,o),
(18,131.5,q),
(18,154,o),
(28,191,q),
(38,228,o),
(64.5,271,q),
(91,314,o),
(129,350,q),
(208,426,o),
(300,448,q),
(327,454,o),
(349.5,454,q),
(372,454,o),
(390,451,q),
(448,451,o),
(468,372,q),
(481,322,o),
(483.5,232.5,q),
(486,143,o),
(488.5,94.5,q),
(491,46,o),
(501,6,q),
(442,6,l),
(438,33,o),
(436,54,q),
(434,75,o),
(432,93,q),
(427,135,o),
(420,166,q)
);
},
{
closed = 1;
nodes = (
(416,379,o),
(359,379,q),
(352,380,o),
(345,380,q),
(272,380,o),
(191,310,q),
(153,278,o),
(126,238,q),
(86,181,o),
(86,136,q),
(86,77,o),
(154,66,q),
(244,68,o),
(326,148,q),
(361,183,o),
(384,224,q),
(416,279,o),
(416,321,q)
);
}
);
width = 521;
}
);
unicode = 97;
},
{
glyphname = b;
layers = (
{
layerId = "f82a6a9d-0b44-4d80-bd76-0945f084e1d5";
name = Fore;
shapes = (
{
closed = 1;
nodes = (
(30,709,l),
(30,725,o),
(41,734,q),
(52,743,o),
(68,743,q),
(84,743,o),
(97,734.5,q),
(110,726,o),
(107,711,q),
(114,279,l),
(177,363,o),
(284,420,q),
(373,468,o),
(440,468,q),
(499,468,o),
(531,430,q),
(555,400,o),
(555,350.5,q),
(555,301,o),
(536.5,264.5,q),
(518,228,o),
(488,194.5,q),
(458,161,o),
(419,132,q),
(380,103,o),
(340,80,q),
(264,36,o),
(190,7,q),
(184,9,o),
(170,8,q),
(156,7,o),
(136,7,q),
(82,7,o),
(41,20,q),
(31,115,o),
(31,309,q),
(33,580,l)
);
},
{
closed = 1;
nodes = (
(117,78,o),
(137.5,78,q),
(158,78,o),
(188,86,q),
(218,94,o),
(260.5,113.5,q),
(303,133,o),
(346,164,q),
(446,235,o),
(497,331,q),
(484,388,o),
(419,388,q),
(360,388,o),
(286,344,q),
(181,281,o),
(136,188,q),
(117,151,o),
(117,113,q),
(117,103,o),
(117,97,q),
(117,91,o),
(117,89,q)
);
}
);
width = 575;
}
);
unicode = 98;
},
{
glyphname = c;
layers = (
{
layerId = "f82a6a9d-0b44-4d80-bd76-0945f084e1d5";
name = Fore;
shapes = (
{
closed = 1;
nodes = (
(550,150,o),
(585.5,150,q),
(621,150,o),
(621,128,q),
(621,123,o),
(618.5,112.5,q),
(616,102,o),
(591.5,87.5,q),
(567,73,o),
(531.5,60,q),
(496,47,o),
(454,36,q),
(412,25,o),
(372,17,q),
(289,0,o),
(254,0,q),
(219,0,o),
(178.5,8,q),
(138,16,o),
(103,34,q),
(22,76,o),
(22,158,q),
(22,164,o),
(22,182,q),
(22,200,o),
(37,233.5,q),
(52,267,o),
(82,300.5,q),
(112,334,o),
(152,362,q),
(236,422,o),
(328,440,q),
(360,447,o),
(381.5,447,q),
(403,447,o),
(417,446.5,q),
(431,446,o),
(446,444.5,q),
(461,443,o),
(472,437,q),
(498,424,o),
(498,386,q),
(498,362,o),
(464,339,q),
(455,333,o),
(448,328,q),
(443,351,o),
(435,367,q),
(427,383,o),
(400,383,q),
(282,358,o),
(197,308,q),
(101,251,o),
(101,188,q),
(101,181,o),
(102,173,q),
(102,109,o),
(151,82,q),
(188,62,o),
(246.5,62,q),
(305,62,o),
(348,75.5,q),
(391,89,o),
(431.5,105.5,q),
(472,122,o),
(511,136,q)
);
}
);
width = 648;
}
);
unicode = 99;
},
{
glyphname = d;
layers = (
{
layerId = "f82a6a9d-0b44-4d80-bd76-0945f084e1d5";
name = Fore;
shapes = (
{
closed = 1;
nodes = (
(489,524,o),
(484.5,436.5,q),
(480,349,o),
(480,250.5,q),
(480,152,o),
(494,42,q),
(494,19,o),
(485.5,9,q),
(477,-1,o),
(457,-1,q),
(410,-1,o),
(410,77,q),
(410,110,l),
(268,4,o),
(170,4,q),
(131,4,o),
(90.5,23,q),
(50,42,o),
(14,100,q),
(9,124,o),
(9,149,q),
(9,174,o),
(18.5,209.5,q),
(28,245,o),
(57.5,283,q),
(87,321,o),
(129,350,q),
(221,412,o),
(328,412,q),
(374,412,o),
(416,398,q),
(416,416,o),
(418.5,461,q),
(421,506,o),
(424,556,q),
(430,686,o),
(432,709.5,q),
(434,733,o),
(437.5,749.5,q),
(441,766,o),
(448,778,q),
(463,803,o),
(500,803,q),
(500,707,o),
(494.5,615.5,q)
);
},
{
closed = 1;
nodes = (
(82,78,o),
(139,78,q),
(148,78,o),
(159,80,q),
(200,80,o),
(260,104,q),
(374,149,o),
(399,182,q),
(399,315,l),
(399,350,o),
(342,350,q),
(335,351,o),
(323.5,351,q),
(312,351,o),
(288,346,q),
(264,341,o),
(234,328,q),
(204,315,o),
(175,296,q),
(114,255,o),
(91,200,q),
(82,179,o),
(82,157,q)
);
}
);
width = 525;
}
);
unicode = 100;
},
{
glyphname = e;
layers = (
{
layerId = "f82a6a9d-0b44-4d80-bd76-0945f084e1d5";
name = Fore;
shapes = (
{
closed = 1;
nodes = (
(319,70,o),
(496,150,q),
(507,150,o),
(514,142.5,q),
(521,135,o),
(521,125,q),
(481,57,o),
(368,19,q),
(255,-19,o),
(157,6,q),
(46,35,o),
(22,131,q),
(20,150,o),
(20,182,q),
(20,214,o),
(36.5,266.5,q),
(53,319,o),
(93,366,q),
(133,413,o),
(187,440,q),
(241,467,o),
(302,467,q),
(360,467,o),
(432,427,q),
(466,408,o),
(486,384,q),
(506,360,o),
(506,335,q),
(506,328,o),
(505,321,q),
(503,260,o),
(446,244,q),
(421,237,o),
(388,237,q),
(244,243,l),
(172,243,o),
(134,212,q),
(112,195,o),
(103,161,q),
(128,70,o),
(231,70,q)
);
},
{
closed = 1;
nodes = (
(339,409,o),
(323,409,q),
(307,409,o),
(271,398.5,q),
(235,388,o),
(207,375,q),
(138,343,o),
(138,308,q),
(218,301,o),
(258,301,q),
(369,301,o),
(408,320,q),
(432,330,o),
(432,345,q),
(432,363,o),
(409.5,379,q),
(387,395,o),
(363,402,q)
);
}
);
width = 554;
}
);
unicode = 101;
},
{
glyphname = f;
layers = (
{
layerId = "f82a6a9d-0b44-4d80-bd76-0945f084e1d5";
name = Fore;
shapes = (
{
closed = 1;
nodes = (
(606,334,o),
(606,307,q),
(606,280,o),
(608,270,q),
(265,228,l),
(283,6,l),
(202,10,l),
(202,100,o),
(182,216,q),
(52,166,l),
(39,166,o),
(30,181,q),
(14,207,o),
(14,228,q),
(166,282,l),
(146,454,o),
(146,561.5,q),
(146,669,o),
(164,729,q),
(182,789,o),
(216.5,809.5,q),
(251,830,o),
(290,830,q),
(329,830,o),
(369.5,813,q),
(410,796,o),
(447,770,q),
(484,744,o),
(510,711.5,q),
(536,679,o),
(536,648,q),
(536,624,o),
(531,614,q),
(491,670,o),
(434,714,q),
(366,766,o),
(306,766,q),
(249,766,o),
(230,685,q),
(221,643,o),
(221,566.5,q),
(221,490,o),
(225,426.5,q),
(229,363,o),
(249,299,q),
(311,299,o),
(388,310,q),
(536,333,o),
(601,334,q)
);
}
);
width = 608;
}
);
unicode = 102;
},
{
glyphname = g;
layers = (
{
layerId = "f82a6a9d-0b44-4d80-bd76-0945f084e1d5";
name = Fore;
shapes = (
{
closed = 1;
nodes = (
(302,-427,l),
(272,-427,o),
(238,-431,q),
(200,-431,l),
(140,-431,o),
(106,-408,q),
(88,-396,o),
(88,-372,q),
(318,-361,l),
(424,-358,o),
(424,-247,q),
(424,-243,o),
(424,-233.5,q),
(424,-224,o),
(424,-192,q),
(429,130,l),
(429,147,o),
(428,158,q),
(266,7,o),
(116,7,q),
(103,7,o),
(90,8,q),
(23,8,o),
(23,67,q),
(25,113,o),
(50,168.5,q),
(75,224,o),
(114.5,275.5,q),
(154,327,o),
(204,368,q),
(281,431,o),
(353,431,q),
(437,431,o),
(491,342,q),
(507,104,o),
(507,4,q),
(507,-96,o),
(504,-160,q),
(501,-224,o),
(490.5,-277,q),
(480,-330,o),
(463,-361,q),
(446,-392,o),
(423,-406,q),
(385,-428,o),
(316,-428,q)
);
},
{
closed = 1;
nodes = (
(364,362,o),
(342.5,362,q),
(321,362,o),
(287,344,q),
(253,326,o),
(222,297.5,q),
(191,269,o),
(164,234,q),
(98,148,o),
(98,97,q),
(98,81,o),
(107,73,q),
(114,69,o),
(124.5,69,q),
(135,69,o),
(155,72.5,q),
(175,76,o),
(209.5,90.5,q),
(244,105,o),
(281,128,q),
(318,151,o),
(348,179,q),
(418,243,o),
(418,304,q),
(418,341,o),
(376,358,q)
);
}
);
width = 528;
}
);
unicode = 103;
},
{
glyphname = h;
layers = (
{
layerId = "f82a6a9d-0b44-4d80-bd76-0945f084e1d5";
name = Fore;
shapes = (
{
closed = 1;
nodes = (
(488,-3,o),
(450.5,-3,q),
(413,-3,o),
(413,24,q),
(413,142,o),
(408,186,q),
(399,283,o),
(370,290,q),
(298,304,o),
(252.5,304,q),
(207,304,o),
(177.5,276.5,q),
(148,249,o),
(132.5,185.5,q),
(117,122,o),
(110,7,q),
(33,7,l),
(35,64,o),
(35,113,q),
(35,162,o),
(33,229.5,q),
(31,297,o),
(28,377,q),
(23,469,o),
(23,532.5,q),
(23,596,o),
(31,649,q),
(41,668,o),
(60,668,q),
(83,668,o),
(96,651.5,q),
(109,635,o),
(110,622,q),
(105,457,l),
(105,364,o),
(114,318,q),
(204,378,o),
(300,378,q),
(331,378,o),
(366,373,q),
(441,334,o),
(464,290,q),
(475,267,o),
(478,241,q),
(481,215,o),
(482,182,q),
(488,68,o),
(497,14,q)
);
}
);
width = 507;
}
);
unicode = 104;
},
{
glyphname = i;
layers = (
{
layerId = "f82a6a9d-0b44-4d80-bd76-0945f084e1d5";
name = Fore;
shapes = (
{
closed = 1;
nodes = (
(130,283,o),
(139,37,q),
(133,6,o),
(91,6,q),
(80,6,o),
(68.5,10.5,q),
(57,15,o),
(54,23,q),
(54,470,l),
(117,470,l)
);
},
{
closed = 1;
nodes = (
(24,641,o),
(65,641,q),
(92,641,o),
(109,629,q),
(112,618,o),
(112,607.5,q),
(112,597,o),
(104,587,q),
(96,577,o),
(80,577,q),
(64,577,o),
(48,584.5,q),
(32,592,o),
(24,606,q)
);
}
);
width = 155;
}
);
unicode = 105;
},
{
glyphname = j;
layers = (
{
layerId = "f82a6a9d-0b44-4d80-bd76-0945f084e1d5";
name = Fore;
shapes = (
{
closed = 1;
nodes = (
(173,-367,o),
(85,-367,q),
(76,-367,o),
(62.5,-366.5,q),
(49,-366,o),
(22.5,-362.5,q),
(-4,-359,o),
(-31,-350,q),
(-96,-328,o),
(-114,-286,q),
(-114,-283,o),
(-109,-272,q),
(-100,-252,o),
(-100,-249,q),
(-67,-274,o),
(-29,-296,q),
(9,-318,o),
(52,-318,q),
(81,-318,o),
(98,-276,q),
(114,-240,o),
(114,-204,q),
(114,-107,o),
(100,48,q),
(80,281,o),
(80,344.5,q),
(80,408,o),
(82,448,q),
(79,472,o),
(104,484,q),
(123,493,o),
(146,493,q),
(137,431,o),
(137,395,q),
(137,359,o),
(137.5,320.5,q),
(138,282,o),
(143.5,208,q),
(149,134,o),
(156,60,q),
(173,-101,o),
(173,-200,q)
);
},
{
closed = 1;
nodes = (
(126,696,o),
(126,672,q),
(126,648,o),
(108,643,q),
(107,643,o),
(100.5,643,q),
(94,643,o),
(79,656,q),
(79,688,o),
(94,702,q),
(100,707,o),
(110,707,q)
);
}
);
width = 182;
}
);
unicode = 106;
},
{
glyphname = k;
layers = (
{
layerId = "f82a6a9d-0b44-4d80-bd76-0945f084e1d5";
name = Fore;
shapes = (
{
closed = 1;
nodes = (
(131,95,l),
(131,15,o),
(93,-2,q),
(85,-5,o),
(74,-5,q),
(63,-5,o),
(48,0,q),
(49,374,l),
(49,455,o),
(39.5,536.5,q),
(30,618,o),
(30,699,q),
(30,731,o),
(64,731,q),
(72,731,l),
(79,731,o),
(81,730,q),
(96,668,o),
(101,580,q),
(112,385,o),
(121,318,q),
(138,327,o),
(197,369,q),
(256,411,o),
(292,436.5,q),
(328,462,o),
(360,484,q),
(435,533,o),
(454,533,q),
(470,533,o),
(479,514,q),
(429,451,o),
(318,374,q),
(273,343,o),
(228.5,312.5,q),
(184,282,o),
(147,249,q),
(214,231,o),
(274,211.5,q),
(334,192,o),
(390,176,q),
(519,138,o),
(612,133,q),
(612,106,o),
(607,98,q),
(598,84,o),
(570,82,q),
(562,82,l),
(501,99,o),
(400,120,q),
(201,161,o),
(126,182,q)
);
}
);
width = 629;
}
);
unicode = 107;
},
{
glyphname = l;
layers = (
{
layerId = "f82a6a9d-0b44-4d80-bd76-0945f084e1d5";
name = Fore;
shapes = (
{
closed = 1;
nodes = (
(39,527,o),
(38.5,547.5,q),
(38,568,o),
(22,648,q),
(31,660,o),
(39.5,671,q),
(48,682,o),
(64,682,q),
(99,682,o),
(118,387,q),
(128,216,o),
(128,45,q),
(128,-1,o),
(64,-1,q),
(56,0,l),
(56,52,o),
(53,133,q),
(50,214,o),
(48.5,274,q),
(47,334,o),
(45,388,q),
(43,442,o),
(41,484.5,q)
);
}
);
width = 161;
}
);
unicode = 108;
},
{
glyphname = m;
layers = (
{
layerId = "f82a6a9d-0b44-4d80-bd76-0945f084e1d5";
name = Fore;
shapes = (
{
closed = 1;
nodes = (
(69,-1,o),
(55.5,-1,q),
(42,-1,o),
(37,2,q),
(32,5,o),
(26,16,q),
(26,49,o),
(28.5,99,q),
(31,149,o),
(33,206,q),
(35,263,o),
(35,321,q),
(35,379,o),
(29,427,q),
(29,459,o),
(72,459,q),
(82,459,o),
(87.5,423,q),
(93,387,o),
(95.5,367,q),
(98,347,o),
(100,338,q),
(126,385,o),
(203,412,q),
(244,425,o),
(280,425,q),
(316,425,o),
(343.5,416.5,q),
(371,408,o),
(390.5,385.5,q),
(410,363,o),
(410,326,q),
(436,375,o),
(527,414,q),
(610,451,o),
(676,451,q),
(771,451,o),
(769,379,q),
(790,7,l),
(790,2,o),
(761,0,q),
(705,-4,o),
(705,10,q),
(704,30,o),
(704,50,q),
(709,211,l),
(709,324,o),
(687,390,q),
(621,385,o),
(585.5,368.5,q),
(550,352,o),
(523,327.5,q),
(496,303,o),
(475,262,q),
(428,170,o),
(428,18,q),
(422,-3,o),
(389,-3,q),
(367,-3,o),
(353,4.5,q),
(339,12,o),
(342,18,q),
(361,124,o),
(361,183,q),
(361,230,o),
(351.5,272.5,q),
(342,315,o),
(328,370,q),
(184,370,o),
(134,255,q),
(112,204,o),
(109.5,159.5,q),
(107,115,o),
(107,83.5,q),
(107,52,o),
(110,16,q)
);
}
);
width = 797;
}
);
unicode = 109;
},
{
glyphname = n;
layers = (
{
layerId = "f82a6a9d-0b44-4d80-bd76-0945f084e1d5";
name = Fore;
shapes = (
{
closed = 1;
nodes = (
(417,338,o),
(404,394,q),
(412,409,o),
(380,409,q),
(346,409,o),
(292,392,q),
(238,375,o),
(204,358,q),
(123,319,o),
(114,282,q),
(114,10,l),
(47,10,l),
(34,44,o),
(34,201,q),
(34,341,o),
(39.5,407,q),
(45,473,o),
(48,482,q),
(74,499,o),
(90,499,q),
(115,499,o),
(115,440,q),
(115,417,o),
(112.5,395.5,q),
(110,374,o),
(110,366,q),
(272,485,o),
(361,485,q),
(462,485,o),
(476,322,q),
(482,265,o),
(482,164,q),
(481,85,l),
(481,41,o),
(483,0,q),
(473,-6,o),
(467,-6,q),
(464,-5,o),
(454,-3,q),
(444,-1,o),
(428,0,q),
(418,40,o),
(417,81.5,q),
(416,123,o),
(416,158,q),
(417,219,l)
);
}
);
width = 512;
}
);
unicode = 110;
},
{
glyphname = o;
layers = (
{
layerId = "f82a6a9d-0b44-4d80-bd76-0945f084e1d5";
name = Fore;
shapes = (
{
closed = 1;
nodes = (
(52,308,o),
(154,380,q),
(235,437,o),
(349,449,q),
(355,449,o),
(377,449,q),
(399,449,o),
(436,436,q),
(518,408,o),
(548,337,q),
(560,309,o),
(560,289.5,q),
(560,270,o),
(559,262,q),
(559,137,o),
(464,65,q),
(376,-1,o),
(244,-1,q),
(149,-1,o),
(100.5,43,q),
(52,87,o),
(52,190,q)
);
},
{
closed = 1;
nodes = (
(121,104,o),
(154,82,q),
(179,66,o),
(238,66,q),
(297,66,o),
(342,75,q),
(387,84,o),
(422,106,q),
(497,154,o),
(497,255,q),
(497,315,o),
(465,353,q),
(430,394,o),
(373,394,q),
(334,387,o),
(294.5,379,q),
(255,371,o),
(220,348,q),
(144,299,o),
(121,166,q)
);
}
);
width = 576;
}
);
unicode = 111;
},
{
glyphname = p;
layers = (
{
layerId = "f82a6a9d-0b44-4d80-bd76-0945f084e1d5";
name = Fore;
shapes = (
{
closed = 1;
nodes = (
(259,448,o),
(358,448,q),
(484,448,o),
(526,382,q),
(545,351,o),
(545,315,q),
(545,265,o),
(513.5,212,q),
(482,159,o),
(430,116,q),
(309,17,o),
(136,-7,q),
(136,-18,o),
(136.5,-42.5,q),
(137,-67,o),
(137.5,-97,q),
(138,-127,o),
(138.5,-161,q),
(139,-195,o),
(140,-226,q),
(143,-303,o),
(144.5,-314,q),
(146,-325,o),
(146,-332,q),
(146,-357,o),
(130,-369.5,q),
(114,-382,o),
(88,-382,q),
(83,-382,o),
(78,-382,q),
(62,422,l),
(71,435,o),
(86,434,q),
(101,433,o),
(110,426,q),
(119,419,o),
(123,401,q)
);
},
{
closed = 1;
nodes = (
(382,383,o),
(344.5,383,q),
(307,383,o),
(270,376,q),
(186,360,o),
(146,305,q),
(128,279,o),
(128,241,q),
(128,237,o),
(128,233,q),
(128,60,l),
(334,106,o),
(420,188,q),
(470,235,o),
(470,285,q),
(470,338,o),
(415,366,q)
);
}
);
width = 570;
}
);
unicode = 112;
},
{
glyphname = q;
layers = (
{
layerId = "f82a6a9d-0b44-4d80-bd76-0945f084e1d5";
name = Fore;
shapes = (
{
closed = 1;
nodes = (
(458,-355,l),
(435,-355,l),
(420,82,l),
(381,45,o),
(302,20,q),
(230,-3,o),
(173,-3,q),
(127,-3,o),
(96.5,10,q),
(66,23,o),
(51.5,38.5,q),
(37,54,o),
(36.5,71,q),
(36,88,o),
(36,98,q),
(36,156,o),
(64,211,q),
(92,266,o),
(144,310,q),
(196,354,o),
(258.5,377,q),
(321,400,o),
(380,400,q),
(394,400,l),
(423,400,o),
(447,379,q),
(471,358,o),
(487,332,q),
(487,158,o),
(488,-11,q),
(489,-180,o),
(500,-354,q),
(485,-354,l)
);
},
{
closed = 1;
nodes = (
(400,333,o),
(380,333,q),
(279,333,o),
(198,274,q),
(112,209,o),
(112,112,q),
(112,64,o),
(166,62,q),
(181,62,o),
(205.5,62,q),
(230,62,o),
(265,68.5,q),
(300,75,o),
(328,92,q),
(394,129,o),
(394,204,q),
(400,286,l)
);
}
);
width = 526;
}
);
unicode = 113;
},
{
glyphname = r;
layers = (
{
layerId = "f82a6a9d-0b44-4d80-bd76-0945f084e1d5";
name = Fore;
shapes = (
{
closed = 1;
nodes = (
(476,395,o),
(410,395,q),
(348,395,o),
(295,372,q),
(195,330,o),
(158,264,q),
(142,234,o),
(142,200,q),
(142,194,o),
(142,166.5,q),
(142,139,o),
(152,92.5,q),
(162,46,o),
(162,-2,q),
(141,-3,o),
(128,-7,q),
(115,-11,o),
(106,-11,q),
(97,-11,o),
(90.5,-3,q),
(84,5,o),
(76,28,q),
(75,34,o),
(72,62,q),
(69,90,o),
(64.5,130,q),
(60,170,o),
(54.5,217.5,q),
(49,265,o),
(44,311,q),
(33,411,o),
(27,458,q),
(27,482,o),
(62,482,q),
(83,482,o),
(95,464.5,q),
(107,447,o),
(114,424.5,q),
(121,402,o),
(123.5,380,q),
(126,358,o),
(128,349,q),
(260,467,o),
(456,467,q),
(478,467,o),
(502,466,q),
(508,467,o),
(517,467,q),
(526,467,o),
(535,455,q),
(546,441,o),
(546,421,q),
(546,371,o),
(518,365,q)
);
}
);
width = 565;
}
);
unicode = 114;
},
{
glyphname = s;
layers = (
{
layerId = "f82a6a9d-0b44-4d80-bd76-0945f084e1d5";
name = Fore;
shapes = (
{
closed = 1;
nodes = (
(479,258,o),
(479,202,q),
(479,160,o),
(418,104,q),
(327,21,o),
(173,-29,q),
(166,-29,o),
(157.5,-15,q),
(149,-1,o),
(144.5,6.5,q),
(140,14,o),
(138,16,q),
(253,54,o),
(327,108,q),
(377,144,o),
(377,167,q),
(377,190,o),
(318,190,q),
(259,190,o),
(145,162,q),
(93,164,o),
(55,199,q),
(22,230,o),
(22,261.5,q),
(22,293,o),
(40,319.5,q),
(58,346,o),
(88,369,q),
(118,392,o),
(158,411,q),
(256,458,o),
(361,458,q),
(392,458,o),
(421,452,q),
(445,452,o),
(449,431,q),
(453,410,o),
(453,362,q),
(394,389,o),
(320,389,q),
(228,389,o),
(168,352,q),
(106,316,o),
(104,258,q),
(104,230,o),
(145,230,q),
(218,238,l),
(312,258,o),
(369,258,q)
);
}
);
width = 514;
}
);
unicode = 115;
},
{
glyphname = t;
layers = (
{
layerId = "f82a6a9d-0b44-4d80-bd76-0945f084e1d5";
name = Fore;
shapes = (
{
closed = 1;
nodes = (
(180,256,l),
(180,294,o),
(173,321,q),
(18,321,l),
(16,390,l),
(166,390,l),
(166,648,l),
(169,657,o),
(178,666,q),
(192,680,o),
(201.5,680,q),
(211,680,o),
(218,678,q),
(225,676,o),
(233,664,q),
(249,598,o),
(249,465,q),
(249,432,o),
(252,400,q),
(284,404,o),
(316,404,q),
(316,404,o),
(368,404,q),
(387,404,o),
(403,406,q),
(400,334,l),
(254,338,l),
(259,-7,l),
(241,-15,o),
(228,-15,q),
(178,-15,o),
(178,96,q)
);
}
);
width = 414;
}
);
unicode = 116;
},
{
glyphname = u;
layers = (
{
layerId = "f82a6a9d-0b44-4d80-bd76-0945f084e1d5";
name = Fore;
shapes = (
{
closed = 1;
nodes = (
(22,149,o),
(19.5,177.5,q),
(17,206,o),
(15,240,q),
(13,274,o),
(13,309,q),
(13,344,o),
(19,373,q),
(32,438,o),
(73,438,q),
(101,430,o),
(110.5,418,q),
(120,406,o),
(120,388.5,q),
(120,371,o),
(111,345,q),
(78,258,o),
(78,188,q),
(78,165,o),
(81,139,q),
(97,72,o),
(191,72,q),
(240,72,o),
(284,89,q),
(368,120,o),
(398,162,q),
(407,208,o),
(407,242.5,q),
(407,277,o),
(404.5,304,q),
(402,331,o),
(398.5,363.5,q),
(395,396,o),
(394,435,q),
(407,441,o),
(419.5,441,q),
(432,441,o),
(445.5,428,q),
(459,415,o),
(468.5,379,q),
(478,343,o),
(481,294.5,q),
(484,246,o),
(484.5,194,q),
(485,142,o),
(485,93.5,q),
(485,45,o),
(489,10,q),
(477,-1,o),
(466,-1,q),
(426,-1,o),
(407,79,q),
(394,68,o),
(363,52,q),
(297,16,o),
(207,4,q),
(190,2,o),
(169,2,q),
(148,2,o),
(116.5,10,q),
(85,18,o),
(57,47,q),
(29,76,o),
(22,133,q)
);
}
);
width = 520;
}
);
unicode = 117;
},
{
glyphname = v;
layers = (
{
layerId = "f82a6a9d-0b44-4d80-bd76-0945f084e1d5";
name = Fore;
shapes = (
{
closed = 1;
nodes = (
(34,392,o),
(34,398.5,q),
(34,405,o),
(39,416,q),
(44,427,o),
(53.5,435,q),
(63,443,o),
(74.5,442.5,q),
(86,442,o),
(93,428,q),
(261,116,l),
(269,128,o),
(286.5,160.5,q),
(304,193,o),
(326.5,234,q),
(349,275,o),
(373.5,319.5,q),
(398,364,o),
(419,401,q),
(467,486,o),
(476,486,q),
(497,486,o),
(506.5,470.5,q),
(516,455,o),
(516,447,q),
(516,439,o),
(516,436,q),
(460,314,o),
(412.5,211,q),
(365,108,o),
(349.5,77.5,q),
(334,47,o),
(322,29,q),
(301,-2,o),
(281,-2,q),
(261,-2,o),
(235,29.5,q),
(209,61,o),
(176,114,q),
(118,210,o),
(36,387,q)
);
}
);
width = 531;
}
);
unicode = 118;
},
{
glyphname = w;
layers = (
{
layerId = "f82a6a9d-0b44-4d80-bd76-0945f084e1d5";
name = Fore;
shapes = (
{
closed = 1;
nodes = (
(385,203,o),
(370.5,141,q),
(356,79,o),
(342,38,q),
(320,-21,o),
(292,-21,q),
(277,-21,o),
(258,-7,q),
(212,42,o),
(128,210,q),
(46,374,o),
(46,415,q),
(46,433,o),
(57,437.5,q),
(68,442,o),
(82,438,q),
(116,428,o),
(130,407,q),
(137,397,o),
(147,372,q),
(172,310,l),
(214,205,o),
(255,118,q),
(277,152,o),
(297,206,q),
(328,292,l),
(368,405,o),
(400,407,q),
(425,423,o),
(550,230,q),
(603,148,o),
(616,132,q),
(625,132,o),
(637.5,192,q),
(650,252,o),
(659.5,293.5,q),
(669,335,o),
(683,371,q),
(716,455,o),
(759,455,q),
(773,455,o),
(778.5,445.5,q),
(784,436,o),
(784,430,q),
(784,424,o),
(784,421,q),
(772,387,o),
(759,343.5,q),
(746,300,o),
(731.5,254.5,q),
(717,209,o),
(702.5,164.5,q),
(688,120,o),
(674,84,q),
(641,6,o),
(619,0,q),
(602,-8,o),
(564,39,q),
(547,61,o),
(528,91,q),
(509,121,o),
(488,153,q),
(437,233,o),
(407,276,q)
);
}
);
width = 828;
}
);
unicode = 119;
},
{
glyphname = x;
layers = (
{
layerId = "f82a6a9d-0b44-4d80-bd76-0945f084e1d5";
name = Fore;
shapes = (
{
closed = 1;
nodes = (
(75,79,o),
(125,142,q),
(175,205,o),
(186,226,q),
(102,318,l),
(86,335,o),
(71,352,q),
(56,369,o),
(44,382,q),
(32,395,o),
(25,404,q),
(18,412,l),
(76,474,l),
(121,419,o),
(142.5,390.5,q),
(164,362,o),
(177,345,q),
(199,317,o),
(241,276,q),
(255,296,o),
(291,348,q),
(351,437,o),
(387,480,q),
(410,480,o),
(424,464,q),
(438,448,o),
(438,434,q),
(412,378,o),
(363,316,q),
(345,294,o),
(330,273.5,q),
(315,253,o),
(306,229,q),
(367,186,o),
(452,83,q),
(471,60,o),
(479,48,q),
(479,41,o),
(468,27,q),
(451,3,o),
(438,-3,q),
(419,6,o),
(398.5,29.5,q),
(378,53,o),
(355,81,q),
(332,109,o),
(307.5,137,q),
(283,165,o),
(256,183,q),
(233,157,o),
(192,108,q),
(117,18,o),
(92,0,q),
(73,-4,o),
(38,18,q),
(29,23,o),
(26,30,q)
);
}
);
width = 482;
}
);
unicode = 120;
},
{
glyphname = y;
layers = (
{
layerId = "f82a6a9d-0b44-4d80-bd76-0945f084e1d5";
name = Fore;
shapes = (
{
closed = 1;
nodes = (
(217,-424,o),
(188,-424,q),
(174,-424,o),
(167.5,-411.5,q),
(161,-399,o),
(167,-382,q),
(189,-289,o),
(230.5,-170,q),
(272,-51,o),
(286,-10,q),
(251,25,o),
(176,130,q),
(22,346,o),
(22,367,q),
(22,368,o),
(23,369,q),
(61,407,l),
(140,334,o),
(267,159,q),
(299,115,o),
(318,85,q),
(339,127,o),
(351,157.5,q),
(363,188,o),
(370.5,206.5,q),
(378,225,o),
(391,256,q),
(425,339,o),
(485,467,q),
(494,471,o),
(504,471,q),
(529,471,o),
(540,458,q),
(544,453,o),
(544,446.5,q),
(544,440,o),
(542,434,q),
(238,-377,l)
);
}
);
width = 562;
}
);
unicode = 121;
},
{
glyphname = z;
layers = (
{
layerId = "f82a6a9d-0b44-4d80-bd76-0945f084e1d5";
name = Fore;
shapes = (
{
closed = 1;
nodes = (
(38,-4,o),
(38,40,q),
(38,68,o),
(82,113,q),
(126,158,o),
(159,186.5,q),
(192,215,o),
(222,242,q),
(293,307,o),
(338,362,q),
(329,362,o),
(311,362,q),
(293,362,o),
(258.5,359.5,q),
(224,357,o),
(186,353,q),
(83,342,o),
(51,342,q),
(19,342,o),
(19,356,q),
(19,373,o),
(38.5,387,q),
(58,401,o),
(66.5,401,q),
(75,401,o),
(79.5,402,q),
(84,403,o),
(95,404.5,q),
(106,406,o),
(126.5,408.5,q),
(147,411,o),
(182,414,q),
(251,421,o),
(398,433,q),
(446,427,o),
(446,398,q),
(446,361,o),
(376,290,q),
(314,228,o),
(243.5,165,q),
(173,102,o),
(145,72,q),
(184,69,o),
(213,69,q),
(377,76,l),
(415,76,o),
(446,72.5,q),
(477,69,o),
(484,66,q),
(500,57,o),
(500,32,q),
(500,22,o),
(496,10,q),
(471,13,o),
(444,13,q),
(417,13,o),
(373,10,q),
(329,7,o),
(267,2,q),
(182,-4,o),
(138,-4,q)
);
}
);
width = 507;
}
);
unicode = 122;
},
{
glyphname = braceleft;
layers = (
{
layerId = "f82a6a9d-0b44-4d80-bd76-0945f084e1d5";
name = Fore;
shapes = (
{
closed = 1;
nodes = (
(240,876,o),
(234,829.5,q),
(228,783,o),
(228,710,q),
(228,637,o),
(238,524,q),
(238,503,o),
(222.5,489.5,q),
(207,476,o),
(188,464.5,q),
(169,453,o),
(153.5,441,q),
(138,429,o),
(138,410,q),
(136,405,o),
(136,396.5,q),
(136,388,o),
(147,370,q),
(173,331,o),
(223,299,q),
(244,286,o),
(248.5,286,q),
(253,286,o),
(254,286,q),
(248,227,o),
(248,188.5,q),
(248,150,o),
(252.5,105.5,q),
(257,61,o),
(273.5,23,q),
(290,-15,o),
(313.5,-32.5,q),
(337,-50,o),
(360.5,-56.5,q),
(384,-63,o),
(404.5,-63,q),
(425,-63,o),
(435,-66,q),
(431,-138,l),
(263,-127,o),
(220,-2,q),
(198,61,o),
(193,137,q),
(188,213,o),
(183,259,q),
(177,271,o),
(158,285,q),
(139,299,o),
(118,316,q),
(61,362,o),
(52,404,q),
(57,441,o),
(73,461.5,q),
(89,482,o),
(107.5,495.5,q),
(126,509,o),
(144,521.5,q),
(162,534,o),
(172,557,q),
(170,595,o),
(166,643,q),
(160,703,o),
(160,751,q),
(160,799,o),
(165.5,843.5,q),
(171,888,o),
(190,926,q),
(232,1010,o),
(338,1010,q),
(338,956,l),
(297,959,o),
(280,943.5,q),
(263,928,o),
(251.5,902,q)
);
}
);
width = 361;
}
);
unicode = 123;
},
{
glyphname = bar;
layers = (
{
layerId = "f82a6a9d-0b44-4d80-bd76-0945f084e1d5";
name = Fore;
shapes = (
{
closed = 1;
nodes = (
(77,-68,l),
(59,-68,o),
(55,-70,q),
(52,980,l),
(111,980,l),
(111,-66,l),
(111,-68,o),
(103,-68,q)
);
}
);
width = 149;
}
);
unicode = 124;
},
{
glyphname = braceright;
layers = (
{
layerId = "f82a6a9d-0b44-4d80-bd76-0945f084e1d5";
name = Fore;
shapes = (
{
closed = 1;
nodes = (
(24,-146,l),
(34,-143,o),
(55.5,-143,q),
(77,-143,o),
(101,-136.5,q),
(125,-130,o),
(150,-112,q),
(219,-63,o),
(219,97,q),
(219,143,o),
(213,202,q),
(214,202,o),
(219,202,q),
(224,202,o),
(245,215,q),
(298,246,o),
(325,288,q),
(334,303,o),
(334,311,q),
(334,319,o),
(332,324,q),
(332,343,o),
(315.5,355,q),
(299,367,o),
(279.5,378,q),
(260,389,o),
(244,402.5,q),
(228,416,o),
(228.5,443,q),
(229,470,o),
(229,515,q),
(229,560,o),
(222.5,618,q),
(216,676,o),
(200.5,721.5,q),
(185,767,o),
(164,792,q),
(143,817,o),
(122,830.5,q),
(101,844,o),
(82,848,q),
(63,852,o),
(52,856,q),
(52,910,l),
(162,910,o),
(225,828,q),
(273,766,o),
(290,650,q),
(299,597,o),
(299,545.5,q),
(299,494,o),
(298,469,q),
(308,446,o),
(328,429.5,q),
(348,413,o),
(369,397.5,q),
(390,382,o),
(406,365,q),
(422,348,o),
(425,325,q),
(423,275,o),
(360,226,q),
(336,207,o),
(314,194.5,q),
(292,182,o),
(286,175,q),
(281,130,o),
(278,84.5,q),
(275,39,o),
(268,-3.5,q),
(261,-46,o),
(247.5,-83,q),
(234,-120,o),
(207,-148,q),
(150,-209,o),
(28,-218,q)
);
}
);
width = 490;
}
);
unicode = 125;
},
{
glyphname = asciitilde;
layers = (
{
layerId = "f82a6a9d-0b44-4d80-bd76-0945f084e1d5";
name = Fore;
shapes = (
{
closed = 1;
nodes = (
(116,567,o),
(62,486,q),
(56,486,o),
(42.5,490,q),
(29,494,o),
(26,507,q),
(41,555,o),
(71,592,q),
(101,629,o),
(134,642,q),
(142,645,o),
(152,645,q),
(162,645,o),
(176.5,634.5,q),
(191,624,o),
(209,605,q),
(227,586,o),
(246,569,q),
(265,552,o),
(286.5,552,q),
(308,552,o),
(320.5,559,q),
(333,566,o),
(343.5,579,q),
(354,592,o),
(366.5,611,q),
(379,630,o),
(402,654,q),
(408,654,o),
(419.5,646.5,q),
(431,639,o),
(431.5,631.5,q),
(432,624,o),
(432,613,q),
(432,602,o),
(424,583.5,q),
(416,565,o),
(398,546,q),
(347,496,o),
(283,496,q),
(237,496,o),
(210,526,q),
(190,544,o),
(176,555.5,q),
(162,567,o),
(148,567,q)
);
}
);
width = 455;
}
);
unicode = 126;
},
{
glyphname = cent;
layers = (
{
layerId = "f82a6a9d-0b44-4d80-bd76-0945f084e1d5";
name = Fore;
shapes = (
{
closed = 1;
nodes = (
(319,-68,l),
(300,-68,o),
(298,-70,q),
(297,4,l),
(269,0,o),
(244,0,q),
(219,0,o),
(178.5,8,q),
(138,16,o),
(103,34,q),
(22,76,o),
(22,158,q),
(21,164,o),
(21,171,q),
(21,245,o),
(102,321,q),
(183,398,o),
(296,432,q),
(296,570,l),
(355,570,l),
(354,445,l),
(389,449,o),
(409,449,q),
(498,449,o),
(498,386,q),
(498,362,o),
(464,339,q),
(455,333,o),
(448,328,q),
(439,373,o),
(417,380,q),
(404,384,o),
(354,372,q),
(354,78,l),
(385,87,o),
(415,99.5,q),
(445,112,o),
(474,124,q),
(542,150,o),
(581.5,150,q),
(621,150,o),
(621,128,q),
(621,103,o),
(591.5,86.5,q),
(562,70,o),
(523,56,q),
(447,30,o),
(354,14,q),
(354,-66,l),
(354,-68,o),
(346,-68,q)
);
},
{
closed = 1;
nodes = (
(279,62,o),
(297,65,q),
(296,354,l),
(152,298,o),
(112,228,q),
(101,209,o),
(101,194.5,q),
(101,180,o),
(102,173,q),
(102,109,o),
(151,82,q),
(188,62,o),
(254,62,q)
);
}
);
width = 648;
}
);
unicode = 162;
},
{
glyphname = sterling;
layers = (
{
layerId = "f82a6a9d-0b44-4d80-bd76-0945f084e1d5";
name = Fore;
shapes = (
{
closed = 1;
nodes = (
(-22,246,o),
(-22,271,q),
(-22,285,o),
(-10,290,q),
(2,295,o),
(16,297,q),
(30,299,o),
(53,301.5,q),
(76,304,o),
(93,307,q),
(96,370,o),
(99.5,416,q),
(103,462,o),
(112.5,493.5,q),
(122,525,o),
(139,544,q),
(156,563,o),
(186,573,q),
(265,599,o),
(324,599,q),
(396,599,o),
(443.5,576,q),
(491,553,o),
(513.5,523,q),
(536,493,o),
(536,474,q),
(536,455,o),
(518.5,455,q),
(501,455,o),
(466,490,q),
(441,516,o),
(398,530,q),
(342,548,o),
(312,548,q),
(282,548,o),
(256.5,540.5,q),
(231,533,o),
(206,509.5,q),
(181,486,o),
(167,442,q),
(152,318,l),
(235,317,l),
(276,317,o),
(288,294,q),
(292,285,o),
(286,275,q),
(280,265,o),
(262,259,q),
(151,258,l),
(124,66,l),
(164,73,o),
(194,78.5,q),
(224,84,o),
(249.5,87,q),
(275,90,o),
(298.5,90,q),
(322,90,o),
(348,86,q),
(390,79,o),
(476,52,q),
(482,50,o),
(485,43.5,q),
(488,37,o),
(485,30,q),
(477,14,o),
(455.5,11,q),
(434,8,o),
(418.5,11.5,q),
(403,15,o),
(384,20,q),
(329,34,o),
(292.5,34,q),
(256,34,o),
(242,31.5,q),
(228,29,o),
(216.5,25,q),
(205,21,o),
(194,16,q),
(151,0,o),
(78,0,q),
(68,0,o),
(57,0,q),
(72,67,o),
(77,250,q),
(29,246,l)
);
}
);
width = 552;
}
);
unicode = 163;
},
{
glyphname = currency;
layers = (
{
layerId = "f82a6a9d-0b44-4d80-bd76-0945f084e1d5";
name = Fore;
shapes = (
{
closed = 1;
nodes = (
(366,50,o),
(238,50,q),
(193,50,o),
(159,59,q),
(151,51,o),
(128.5,33,q),
(106,15,o),
(96,6,q),
(81,-5,o),
(76,-5,q),
(71,-5,o),
(60.5,-3,q),
(50,-1,o),
(37,4,q),
(6,14,o),
(-1,29,q),
(86,104,l),
(46,148,o),
(46,241,q),
(46,334,o),
(110,398,q),
(30,477,l),
(102,544,l),
(154,488,o),
(184,454,q),
(253,491,o),
(343,500,q),
(350,500,o),
(372.5,500,q),
(395,500,o),
(430,487,q),
(440,500,o),
(460.5,524,q),
(481,548,o),
(491.5,560.5,q),
(502,573,o),
(509,580,q),
(538,580,o),
(554.5,562.5,q),
(571,545,o),
(571,530,q),
(564,518,o),
(548,493,q),
(523,456,l),
(515,444,o),
(510,437,q),
(555,387,o),
(555,328,q),
(555,321,o),
(554,314,q),
(554,237,o),
(513,174,q),
(560,130,o),
(600,82,q),
(600,73,o),
(587,59,q),
(565,33,o),
(550,26,q),
(527,35,o),
(502.5,58.5,q),
(478,82,o),
(451,111,q)
);
},
{
closed = 1;
nodes = (
(107,145,o),
(140,124,q),
(166,107,o),
(224.5,107,q),
(283,107,o),
(328,116.5,q),
(373,126,o),
(408,148,q),
(483,196,o),
(483,297,q),
(483,356,o),
(451,394,q),
(416,435,o),
(359,435,q),
(320,429,o),
(280.5,421,q),
(241,413,o),
(207,390,q),
(130,339,o),
(107,207,q)
);
}
);
width = 576;
}
);
unicode = 164;
},
{
glyphname = yen;
layers = (
{
layerId = "f82a6a9d-0b44-4d80-bd76-0945f084e1d5";
name = Fore;
shapes = (
{
closed = 1;
nodes = (
(214,200,o),
(261,205,q),
(261,248,l),
(150,234,l),
(145,234,o),
(137.5,233.5,q),
(130,233,o),
(122,234,q),
(103,237,o),
(101,251,q),
(121,287,l),
(123,289,o),
(261,304,q),
(262,349,l),
(-5,622,l),
(-10,629,o),
(-10,634,q),
(-10,639,o),
(-6,645.5,q),
(-2,652,o),
(10,658,q),
(35,673,o),
(48,673,q),
(64,661,o),
(76.5,652.5,q),
(89,644,o),
(101.5,634,q),
(114,624,o),
(129,609.5,q),
(144,595,o),
(167,570,q),
(200,535,o),
(301,415,q),
(383,655,o),
(431,696,q),
(447,709,o),
(459.5,710,q),
(472,711,o),
(484,696.5,q),
(496,682,o),
(501,670,q),
(485,636,o),
(465,598,q),
(445,560,o),
(424,518,q),
(371,411,o),
(345,339,q),
(343,314,l),
(366,317,o),
(386,319.5,q),
(406,322,o),
(424,325,q),
(440,330,o),
(448.5,325,q),
(457,320,o),
(458.5,310.5,q),
(460,301,o),
(455.5,290,q),
(451,279,o),
(442,273,q),
(341,259,l),
(338,214,l),
(396,221,o),
(458,234,q),
(481,234,o),
(487,222,q),
(493,210,o),
(493,201,q),
(493,192,o),
(491,184,q),
(409,182,o),
(336,165,q),
(328,3,l),
(325,-4,o),
(314,-12,q),
(288,-31,o),
(266,-18,q),
(254,-12,o),
(252,10,q),
(260,25,o),
(262,149,q),
(187,134,o),
(128,134,q),
(104,134,o),
(104,169,q),
(104,173,o),
(110.5,179.5,q),
(117,186,o),
(121,186,q)
);
}
);
width = 547;
}
);
unicode = 165;
},
{
glyphname = brokenbar;
layers = (
{
layerId = "f82a6a9d-0b44-4d80-bd76-0945f084e1d5";
name = Fore;
shapes = (
{
closed = 1;
nodes = (
(36,290,l),
(102,290,l),
(94,34,l),
(92,16,o),
(66,8,q),
(40,1,o),
(28,16,q)
);
},
{
closed = 1;
nodes = (
(40,431,o),
(44,532,q),
(42,554,o),
(52,560,q),
(62,566,o),
(74.5,566,q),
(87,566,o),
(96.5,564,q),
(106,562,o),
(110,548,q),
(102,314,l),
(37,314,l)
);
}
);
width = 131;
}
);
unicode = 166;
},
{
glyphname = section;
layers = (
{
layerId = "f82a6a9d-0b44-4d80-bd76-0945f084e1d5";
name = Fore;
shapes = (
{
closed = 1;
nodes = (
(494,503,o),
(494,448,q),
(494,404,o),
(429,346,q),
(394,315,o),
(346,286,q),
(409,280,o),
(433.5,260.5,q),
(458,241,o),
(458,218,q),
(458,189,o),
(426,156.5,q),
(394,124,o),
(346,97,q),
(235,35,o),
(99,24,q),
(90,24,o),
(71,60,q),
(67,67,o),
(65,69,q),
(195,91,o),
(288,136,q),
(360,171,o),
(360,190.5,q),
(360,210,o),
(300.5,210,q),
(241,210,o),
(133,191,q),
(81,193,o),
(43,228,q),
(10,259,o),
(10,294,q),
(10,361,o),
(108,419,q),
(75,434,o),
(56.5,460,q),
(38,486,o),
(38,512,q),
(38,563,o),
(104,614,q),
(204,690,o),
(349,702,q),
(363,703,o),
(385.5,703,q),
(408,703,o),
(437,697,q),
(461,697,o),
(465,676,q),
(469,655,o),
(469,607,q),
(410,634,o),
(336,634,q),
(196,634,o),
(138,556,q),
(121,533,o),
(120,502,q),
(120,485,o),
(132.5,480,q),
(145,475,o),
(161,475,q),
(234,483,l),
(323,503,o),
(381,503,q)
);
},
{
closed = 1;
nodes = (
(391,441,o),
(344,441,q),
(306,441,o),
(260.5,425,q),
(215,409,o),
(180,388,q),
(101,340,o),
(92,286,q),
(92,260,o),
(132,260,q),
(143,260,o),
(155,261,q),
(248,291,o),
(317,336,q),
(391,383,o),
(391,413,q)
);
}
);
width = 514;
}
);
unicode = 167;
},
{
glyphname = dieresis;
layers = (
{
layerId = "f82a6a9d-0b44-4d80-bd76-0945f084e1d5";
name = Fore;
shapes = (
{
closed = 1;
nodes = (
(66,597,o),
(66,631,q),
(66,643,o),
(116,664,q),
(137,664,o),
(144.5,655,q),
(152,646,o),
(152,632,q),
(152,618,o),
(146,611.5,q),
(140,605,o),
(131,602,q),
(119,597,o),
(90,597,q)
);
},
{
closed = 1;
nodes = (
(210,597,o),
(210,631,q),
(210,644,o),
(261,664,q),
(297,664,o),
(297,630,q),
(297,599,o),
(255,598,q),
(244,597,o),
(234,597,q)
);
}
);
width = 380;
}
);
unicode = 168;
},
{
glyphname = copyright;
layers = (
{
layerId = "f82a6a9d-0b44-4d80-bd76-0945f084e1d5";
name = Fore;
shapes = (
{
closed = 1;
nodes = (
(80,67,o),
(59,101.5,q),
(38,136,o),
(38,176,q),
(38,216,o),
(50,271,q),
(62,326,o),
(80.5,373,q),
(99,420,o),
(125.5,464,q),
(152,508,o),
(186,542,q),
(261,615,o),
(356,615,q),
(484,615,o),
(552,521,q),
(615,436,o),
(615,310,q),
(615,161,o),
(520,78,q),
(427,-2,o),
(273,-2,q),
(184,-2,o),
(116,44,q)
);
},
{
closed = 1;
nodes = (
(97,48,o),
(289,48,q),
(427,48,o),
(496.5,119,q),
(566,190,o),
(566,321,q),
(566,325,o),
(566,329,q),
(566,444,o),
(509,505,q),
(452,566,o),
(353,566,q),
(342,566,o),
(333.5,566,q),
(325,566,o),
(318,566,q),
(265,566,o),
(213,494,q),
(164,428,o),
(129,325,q),
(97,231,o),
(97,183,q)
);
},
{
closed = 1;
nodes = (
(164,252,o),
(164,258,q),
(164,300,o),
(184,344.5,q),
(204,389,o),
(238,425.5,q),
(272,462,o),
(308.5,481,q),
(345,500,o),
(375,500,q),
(382,500,o),
(395,499.5,q),
(408,499,o),
(422.5,490.5,q),
(437,482,o),
(437,455,q),
(437,428,o),
(426.5,416,q),
(416,404,o),
(408,395,q),
(406,415,o),
(401,429,q),
(396,443,o),
(380,443,q),
(315,424,o),
(264,378,q),
(209,328,o),
(209,273,q),
(209,267,o),
(209.5,248,q),
(210,229,o),
(217.5,210.5,q),
(225,192,o),
(238,182,q),
(258,164,o),
(292,164,q),
(326,164,o),
(350.5,175.5,q),
(375,187,o),
(398,201.5,q),
(421,216,o),
(443.5,227.5,q),
(466,239,o),
(481,239,q),
(496,239,o),
(501.5,235.5,q),
(507,232,o),
(507,224.5,q),
(507,217,o),
(505.5,207,q),
(504,197,o),
(490,184.5,q),
(476,172,o),
(455.5,161,q),
(435,150,o),
(411,140.5,q),
(387,131,o),
(364,124,q),
(316,109,o),
(296.5,109,q),
(277,109,o),
(254,116,q),
(231,123,o),
(211,138,q),
(164,175,o),
(164,246,q)
);
}
);
width = 646;
}
);
unicode = 169;
},
{
glyphname = guillemotleft;
layers = (
{
layerId = "f82a6a9d-0b44-4d80-bd76-0945f084e1d5";
name = Fore;
shapes = (
{
closed = 1;
nodes = (
(116,254,o),
(159,288,q),
(202,322,o),
(246,356,q),
(354,441,o),
(401,467,q),
(414,467,o),
(420,445,q),
(423,436,o),
(423,427,q),
(423,418,o),
(419,412,q),
(184,233,l),
(199,225,o),
(227,212.5,q),
(255,200,o),
(289,183,q),
(370,143,o),
(431,103,q),
(430,102,o),
(427,95,q),
(424,88,o),
(420,80,q),
(411,59,o),
(409,59,q),
(379,78,o),
(323,97.5,q),
(267,117,o),
(233,130.5,q),
(199,144,o),
(170,158,q),
(102,192,o),
(84,229,q)
);
},
{
closed = 1;
nodes = (
(350,276,o),
(392.5,310.5,q),
(435,345,o),
(480,380,q),
(585,461,o),
(634,490,q),
(647,488,o),
(654,467,q),
(660,448,o),
(653,434,q),
(418,255,l),
(433,247,o),
(460.5,234.5,q),
(488,222,o),
(522,205,q),
(614,159,o),
(665,126,q),
(664,124,o),
(661,117,q),
(658,110,o),
(654,102,q),
(645,82,o),
(642,82,q),
(612,101,o),
(556,120.5,q),
(500,140,o),
(466.5,153,q),
(433,166,o),
(403,181,q),
(335,215,o),
(318,251,q)
);
}
);
width = 718;
}
);
unicode = 171;
},
{
glyphname = logicalnot;
layers = (
{
layerId = "f82a6a9d-0b44-4d80-bd76-0945f084e1d5";
name = Fore;
shapes = (
{
closed = 1;
nodes = (
(582,286,o),
(582,263,q),
(582,230,l),
(582,195,o),
(573,121,q),
(559,120,o),
(548,120,q),
(537,120,o),
(528,122,q),
(511,127,o),
(511,169,q),
(514,273,l),
(73,266,l),
(76,331,l),
(92,330,o),
(122.5,330,q),
(153,330,o),
(213,335,q),
(340,346,l),
(422,352,o),
(481.5,352,q),
(541,352,o),
(587,341,q)
);
}
);
width = 614;
}
);
unicode = 172;
},
{
glyphname = registered;
layers = (
{
layerId = "f82a6a9d-0b44-4d80-bd76-0945f084e1d5";
name = Fore;
shapes = (
{
closed = 1;
nodes = (
(80,67,o),
(59,101.5,q),
(38,136,o),
(38,176,q),
(38,216,o),
(50,271,q),
(62,326,o),
(80.5,373,q),
(99,420,o),
(125.5,464,q),
(152,508,o),
(186,542,q),
(261,615,o),
(356,615,q),
(484,615,o),
(552,521,q),
(615,436,o),
(615,310,q),
(615,161,o),
(520,78,q),
(427,-2,o),
(273,-2,q),
(184,-2,o),
(116,44,q)
);
},
{
closed = 1;
nodes = (
(97,48,o),
(289,48,q),
(447,48,o),
(517,143,q),
(511,142,o),
(504,142,q),
(494,142,l),
(485,142,o),
(457.5,159,q),
(430,176,o),
(394,198,q),
(300,258,o),
(253,274,q),
(253,164,l),
(253,156,o),
(243,155.5,q),
(233,155,o),
(230,155,q),
(213,155,o),
(209.5,175.5,q),
(206,196,o),
(206,228,q),
(208,341,l),
(208,388,o),
(202,440,q),
(215,465,o),
(238,430,q),
(267,456,o),
(341,456,q),
(386,456,o),
(423,446,q),
(482,432,o),
(482,407,q),
(482,377,o),
(386,346,q),
(279,311,o),
(266,304,q),
(266,301,o),
(271.5,298,q),
(277,295,o),
(302,283,q),
(391,239,o),
(453.5,205.5,q),
(516,172,o),
(521,168.5,q),
(526,165,o),
(528,161,q),
(566,225,o),
(566,321,q),
(566,325,o),
(566,329,q),
(566,444,o),
(509,505,q),
(452,566,o),
(353,566,q),
(342,566,o),
(333.5,566,q),
(325,566,o),
(318,566,q),
(265,566,o),
(213,494,q),
(164,428,o),
(129,325,q),
(97,231,o),
(97,183,q)
);
},
{
closed = 1;
nodes = (
(264,425,o),
(245,401,q),
(240,394,o),
(240,384,q),
(240,374,o),
(241,366,q),
(244,347,o),
(253,338,q),
(255,337,o),
(260,337,q),
(265,337,o),
(282.5,341,q),
(300,345,o),
(326,354,q),
(387,374,o),
(412,389,q),
(437,404,o),
(437,412.5,q),
(437,421,o),
(413,425,q),
(374,425,l)
);
}
);
width = 646;
}
);
unicode = 174;
},
{
glyphname = macron;
layers = (
{
layerId = "f82a6a9d-0b44-4d80-bd76-0945f084e1d5";
name = Fore;
shapes = (
{
closed = 1;
nodes = (
(30,534,o),
(30,559,q),
(30,573,o),
(41.5,578,q),
(53,583,o),
(81.5,587,q),
(110,591,o),
(153.5,598.5,q),
(197,606,o),
(245,611,q),
(287,611,o),
(298,588,q),
(299,584,o),
(299,579.5,q),
(299,575,o),
(294.5,567.5,q),
(290,560,o),
(272,554,q),
(80,534,l)
);
}
);
width = 318;
}
);
unicode = 175;
},
{
glyphname = degree;
layers = (
{
layerId = "f82a6a9d-0b44-4d80-bd76-0945f084e1d5";
name = Fore;
shapes = (
{
closed = 1;
nodes = (
(25,330,o),
(25,357,q),
(25,384,o),
(37,404,q),
(58,437,o),
(97,437,q),
(149,437,o),
(180,395,q),
(194,377,o),
(197,354,q),
(197,303,o),
(176.5,286.5,q),
(156,270,o),
(114,270,q),
(84,270,o),
(63.5,285,q),
(43,300,o),
(34,315,q)
);
},
{
closed = 1;
nodes = (
(127,394,o),
(101,394,q),
(70,394,o),
(64,364,q),
(64,361,o),
(64,351.5,q),
(64,342,o),
(76,322,q),
(94,307,o),
(104,306,q),
(114,305,o),
(122.5,305,q),
(131,305,o),
(141,313,q),
(156,323,o),
(156,339.5,q),
(156,356,o),
(150,370,q)
);
}
);
width = 225;
}
);
unicode = 176;
},
{
glyphname = plusminus;
layers = (
{
layerId = "f82a6a9d-0b44-4d80-bd76-0945f084e1d5";
name = Fore;
shapes = (
{
closed = 1;
nodes = (
(71,-5,o),
(71,21,q),
(71,34,o),
(82.5,39,q),
(94,44,o),
(109,46.5,q),
(124,49,o),
(161,55,q),
(198,61,o),
(242,69,q),
(240,90,o),
(238,116,q),
(236,142,o),
(232,168,q),
(223,227,o),
(210,266,q),
(183,266,o),
(146,255,q),
(71,233,o),
(43,232,q),
(31,232,o),
(24.5,246.5,q),
(18,261,o),
(18,276,q),
(210,316,l),
(210,482,l),
(210,501,o),
(245,501,q),
(262,501,o),
(267,494.5,q),
(272,488,o),
(275,473,q),
(278,458,o),
(281,439,q),
(284,420,o),
(286.5,399,q),
(289,378,o),
(291.5,359,q),
(294,340,o),
(294,333,q),
(481,354,l),
(481,331,o),
(479,320,q),
(477,309,o),
(460,303,q),
(443,297,o),
(404.5,292,q),
(366,287,o),
(293,274,q),
(290,260,o),
(290,248.5,q),
(290,237,o),
(291.5,221.5,q),
(293,206,o),
(298,181,q),
(310,113,o),
(311,82,q),
(392,96,o),
(462,106,q),
(503,106,o),
(514,83,q),
(517,79,o),
(517,74.5,q),
(517,70,o),
(512.5,62,q),
(508,54,o),
(490,48,q),
(122,-5,l)
);
}
);
width = 537;
}
);
unicode = 177;
},
{
glyphname = acute;
layers = (
{
layerId = "f82a6a9d-0b44-4d80-bd76-0945f084e1d5";
name = Fore;
shapes = (
{
closed = 1;
nodes = (
(108,624,o),
(124,624,q),
(134,624,o),
(139,614.5,q),
(144,605,o),
(143,596,q),
(142,587,o),
(138,579,q),
(134,571,o),
(125,560,q),
(108,541,o),
(56,498,q),
(25,526,l),
(94,605,l)
);
}
);
width = 176;
}
);
unicode = 180;
},
{
glyphname = mu;
layers = (
{
layerId = "f82a6a9d-0b44-4d80-bd76-0945f084e1d5";
name = Fore;
shapes = (
{
closed = 1;
nodes = (
(33,446,o),
(76,446,q),
(91,446,o),
(113,426,q),
(112,388,o),
(108,357,q),
(101,294,o),
(101,266,q),
(101,238,o),
(101.5,218.5,q),
(102,199,o),
(110,160,q),
(135,120,o),
(200,93,q),
(247,73,o),
(291,73,q),
(335,73,o),
(359,91.5,q),
(383,110,o),
(390,138,q),
(398,184,o),
(398,212,q),
(398,260,o),
(390.5,313.5,q),
(383,367,o),
(383,380.5,q),
(383,394,o),
(384,402,q),
(387,424,o),
(414,430,q),
(437,407,o),
(450,317,q),
(458,258,o),
(458,206.5,q),
(458,155,o),
(457,128,q),
(456,-19,o),
(430,-26,q),
(427,-27,o),
(420,-27,q),
(413,-27,o),
(397,-18,q),
(394,-16,o),
(394,3,q),
(394,40,o),
(392,38,q),
(348,3,o),
(285,3,q),
(225,3,o),
(168,29,q),
(117,52,o),
(101,79,q),
(100,68,o),
(100,58,q),
(104,-30,l),
(104,-93,o),
(80,-106,q),
(74,-110,o),
(64,-110,q),
(54,-110,o),
(42,-106,q),
(43,-101,o),
(43,-89.5,q),
(43,-78,o),
(42,-55,q),
(41,-32,o),
(39,14,q),
(33,154,o),
(33,226,q)
);
}
);
width = 502;
}
);
unicode = 181;
},
{
glyphname = paragraph;
layers = (
{
layerId = "f82a6a9d-0b44-4d80-bd76-0945f084e1d5";
name = Fore;
shapes = (
{
closed = 1;
nodes = (
(302,426,l),
(296,426,o),
(294,245.5,q),
(292,65,o),
(292,34,q),
(291,2,l),
(285,2,o),
(275,1.5,q),
(265,1,o),
(256,4,q),
(234,11,o),
(236,40,q),
(238,66,o),
(239,113,q),
(241,209,o),
(242,220,q),
(149,238,o),
(96,270,q),
(18,319,o),
(18,374,q),
(18,429,o),
(88,460,q),
(137,482,o),
(208,482,q),
(279,482,o),
(365,455,q),
(350,-1,l),
(310,2,l),
(308,2,o),
(308,34,q),
(314,392,l),
(314,424,o),
(313,424,q)
);
}
);
width = 388;
}
);
unicode = 182;
},
{
glyphname = periodcentered;
layers = (
{
layerId = "f82a6a9d-0b44-4d80-bd76-0945f084e1d5";
name = Fore;
shapes = (
{
closed = 1;
nodes = (
(20,264,o),
(32,272.5,q),
(44,281,o),
(51,281,q),
(58,281,o),
(67,279.5,q),
(76,278,o),
(88,266.5,q),
(100,255,o),
(102,239,q),
(102,215,o),
(92,207.5,q),
(82,200,o),
(69,200,q),
(56,200,o),
(48,202.5,q),
(40,205,o),
(32,210,q),
(15,222,o),
(15,240,q)
);
}
);
width = 144;
}
);
unicode = 183;
},
{
glyphname = cedilla;
layers = (
{
layerId = "f82a6a9d-0b44-4d80-bd76-0945f084e1d5";
name = Fore;
shapes = (
{
closed = 1;
nodes = (
(47,28,o),
(59,28,q),
(71,28,o),
(80,14.5,q),
(89,1,o),
(85,-2,q),
(85,-29,o),
(86,-50,q),
(87,-71,o),
(105,-71,q),
(127,-69,o),
(152.5,-69,q),
(178,-69,o),
(205,-79,q),
(245,-95,o),
(245,-132,q),
(245,-172,o),
(198,-204,q),
(157,-233,o),
(104,-233,q),
(77,-233,o),
(46,-223,q),
(43,-223,o),
(43,-218,q),
(43,-213,o),
(43.5,-206,q),
(44,-199,o),
(44.5,-192.5,q),
(45,-186,o),
(43,-184,q),
(54,-185,o),
(70,-185,q),
(86,-185,o),
(112,-180.5,q),
(138,-176,o),
(162,-166.5,q),
(186,-157,o),
(198,-146,q),
(224,-122,o),
(168,-114,q),
(156,-112,o),
(135,-112,q),
(114,-112,o),
(82,-115,q),
(48,-115,o),
(48,-7,q),
(47,2,o),
(47,8,q)
);
}
);
width = 273;
}
);
unicode = 184;
},
{
glyphname = guillemotright;
layers = (
{
layerId = "f82a6a9d-0b44-4d80-bd76-0945f084e1d5";
name = Fore;
shapes = (
{
closed = 1;
nodes = (
(73,65,o),
(68,84,q),
(68,88,o),
(68,91,q),
(68,122,o),
(139,164,q),
(244,225,o),
(276,249.5,q),
(308,274,o),
(314,297,q),
(50,396,l),
(100,445,l),
(149,410,o),
(190.5,396,q),
(232,382,o),
(270.5,373.5,q),
(309,365,o),
(347,353.5,q),
(385,342,o),
(426,311,q),
(400,280,o),
(360.5,248.5,q),
(321,217,o),
(277.5,184,q),
(234,151,o),
(191.5,117,q),
(149,83,o),
(118,48,q)
);
},
{
closed = 1;
nodes = (
(257,110,o),
(322,161,q),
(355,187,o),
(402.5,214,q),
(450,241,o),
(475,258,q),
(534,296,o),
(542,325,q),
(277,424,l),
(327,473,l),
(376,438,o),
(417.5,424,q),
(459,410,o),
(498,401.5,q),
(537,393,o),
(574.5,381.5,q),
(612,370,o),
(654,339,q),
(628,308,o),
(588.5,276.5,q),
(549,245,o),
(505.5,212,q),
(462,179,o),
(419.5,145,q),
(377,111,o),
(345,76,q)
);
}
);
width = 670;
}
);
unicode = 187;
},
{
glyphname = AE;
layers = (
{
layerId = "f82a6a9d-0b44-4d80-bd76-0945f084e1d5";
name = Fore;
shapes = (
{
closed = 1;
nodes = (
(592,562,l),
(523,562,o),
(477,552,q),
(458,464,o),
(460,439,q),
(462,414,o),
(463,398,q),
(466,348,o),
(466,306,q),
(538,306,o),
(599,314,q),
(719,330,o),
(783,330,q),
(783,276,l),
(474,238,l),
(479,74,l),
(594,74,o),
(665,80,q),
(794,91,o),
(880,91,q),
(884,89,o),
(884,82,q),
(884,75,o),
(877,66,q),
(858,41,o),
(825,34,q),
(714,22,o),
(604,15,q),
(494,8,o),
(397,0,q),
(397,3,l),
(365,8,o),
(363,10,q),
(338,252,l),
(162,226,l),
(158,211,o),
(151.5,184.5,q),
(145,158,o),
(136,129,q),
(114,58,o),
(87,24,q),
(81,16,o),
(63,22.5,q),
(45,29,o),
(37.5,34,q),
(30,39,o),
(30,52,q),
(30,65,o),
(40,103.5,q),
(50,142,o),
(68,193.5,q),
(86,245,o),
(108.5,302.5,q),
(131,360,o),
(154,414,q),
(208,541,o),
(235,583,q),
(256,629,o),
(280,652,q),
(309,680,o),
(332,680,q),
(378,680,o),
(401,638,q),
(433,630,o),
(485,629,q),
(537,628,o),
(593,628,q),
(738,628,o),
(780,612,q),
(780,562,l),
(758,559,o),
(731,559,q)
);
},
{
closed = 1;
nodes = (
(350,482,l),
(350,538,o),
(342,586,q),
(217,403,o),
(193,302,q),
(237,302,o),
(265,308,q),
(318,320,o),
(349,321,q),
(346,335,o),
(346,355,q)
);
}
);
width = 898;
}
);
unicode = 198;
},
{
glyphname = Eth;
layers = (
{
layerId = "f82a6a9d-0b44-4d80-bd76-0945f084e1d5";
name = Fore;
shapes = (
{
closed = 1;
nodes = (
(10,194,o),
(10,219,q),
(10,233,o),
(21.5,238,q),
(33,243,o),
(42.5,244.5,q),
(52,246,o),
(58.5,246.5,q),
(65,247,o),
(73,249,q),
(73,638,l),
(86,638,l),
(110,638,o),
(123.5,630.5,q),
(137,623,o),
(139,614,q),
(213,640,o),
(335,640,q),
(559,640,o),
(642,530,q),
(673,488,o),
(673,423,q),
(674,415,o),
(674,393,q),
(674,371,o),
(657.5,332,q),
(641,293,o),
(607.5,253,q),
(574,213,o),
(528,177.5,q),
(482,142,o),
(431,112,q),
(380,82,o),
(328,60,q),
(206,7,o),
(119,7,q),
(92,7,o),
(73,14,q),
(73,194,l),
(60,194,l)
);
},
{
closed = 1;
nodes = (
(157,262,l),
(190,268,o),
(225,271,q),
(267,271,o),
(278,248,q),
(282,239,o),
(276,229.5,q),
(270,220,o),
(252,214,q),
(157,203,l),
(157,71,l),
(227,71,o),
(332,122,q),
(514,212,o),
(582,331,q),
(606,373,o),
(606,415,q),
(595,505,o),
(506,547,q),
(439,579,o),
(335,579,q),
(231,579,o),
(157,548,q)
);
}
);
width = 698;
}
);
unicode = 208;
},
{
glyphname = multiply;
layers = (
{
layerId = "f82a6a9d-0b44-4d80-bd76-0945f084e1d5";
name = Fore;
shapes = (
{
closed = 1;
nodes = (
(153,94,o),
(130,75,q),
(109,75,o),
(97,84,q),
(85,93,o),
(82,98,q),
(125,141,o),
(157.5,182.5,q),
(190,224,o),
(198,239,q),
(163,277,o),
(138.5,305,q),
(114,333,o),
(95,353.5,q),
(76,374,o),
(76,375,q),
(118,421,l),
(151,381,o),
(166.5,360,q),
(182,339,o),
(192,326,q),
(209,303,o),
(238,276,q),
(248,289,o),
(260,307.5,q),
(272,326,o),
(286,346,q),
(317,392,o),
(344,425,q),
(361,425,o),
(370.5,413.5,q),
(380,402,o),
(380,391,q),
(361,350,o),
(337,319.5,q),
(313,289,o),
(302.5,274.5,q),
(292,260,o),
(286,242,q),
(332,209,o),
(390,136,q),
(404,119,o),
(410,110,q),
(410,100,o),
(397.5,87.5,q),
(385,75,o),
(381,73,q),
(367,80,o),
(352,97,q),
(337,114,o),
(320,134,q),
(277,188,o),
(249,209,q)
);
}
);
width = 482;
}
);
unicode = 215;
},
{
glyphname = Thorn;
layers = (
{
layerId = "f82a6a9d-0b44-4d80-bd76-0945f084e1d5";
name = Fore;
shapes = (
{
closed = 1;
nodes = (
(106,1,o),
(77,1,q),
(60,5,l),
(50,10,o),
(45,21,q),
(34,677,l),
(33,681,o),
(33,691,q),
(33,701,o),
(44.5,710,q),
(56,719,o),
(71.5,719,q),
(87,719,o),
(100,710.5,q),
(113,702,o),
(110,687,q),
(115,438,l),
(178,521,o),
(272,570,q),
(338,605,o),
(391,605,q),
(453,605,o),
(484,556,q),
(504,524,o),
(504,474.5,q),
(504,425,o),
(485,386.5,q),
(466,348,o),
(434.5,313,q),
(403,278,o),
(362,249,q),
(278,190,o),
(190,170,q),
(162,164,o),
(142.5,164,q),
(123,164,o),
(110,166,q),
(106,25,l)
);
},
{
closed = 1;
nodes = (
(118,231,o),
(147,231,q),
(181,231,o),
(226,250.5,q),
(271,270,o),
(308,297,q),
(396,360,o),
(446,455,q),
(432,518,o),
(365,518,q),
(318,518,o),
(269,489,q),
(172,432,o),
(133,344,q),
(118,309,o),
(118,285.5,q),
(118,262,o),
(118,255,q),
(118,248,o),
(118,246,q)
);
}
);
width = 518;
}
);
unicode = 222;
},
{
glyphname = germandbls;
layers = (
{
layerId = "f82a6a9d-0b44-4d80-bd76-0945f084e1d5";
name = Fore;
shapes = (
{
closed = 1;
nodes = (
(141,615,o),
(131,598,q),
(146,-145,l),
(78,-145,l),
(89,-75,o),
(89,22.5,q),
(89,120,o),
(85.5,214.5,q),
(82,309,o),
(77.5,408,q),
(73,507,o),
(73,548,q),
(73,599,l),
(73,627,o),
(105,648,q),
(123,660,o),
(166.5,667.5,q),
(210,675,o),
(247,675,q),
(284,675,o),
(331.5,671.5,q),
(379,668,o),
(436,649,q),
(493,630,o),
(522.5,602,q),
(552,574,o),
(552,545,q),
(552,501,o),
(492.5,456.5,q),
(433,412,o),
(314,371,q),
(545,358,o),
(630,304,q),
(676,275,o),
(676,235,q),
(676,181,o),
(602,126,q),
(519,64,o),
(392,22,q),
(330,1,o),
(267,-9,q),
(260,69,l),
(375,85,o),
(447.5,113,q),
(520,141,o),
(550.5,170,q),
(581,199,o),
(581,225,q),
(581,262,o),
(533,285,q),
(465,318,o),
(347,318,q),
(288,318,o),
(214,309,q),
(210,414,l),
(451,464,o),
(451,531,q),
(451,578,o),
(366,600,q),
(309,615,o),
(244,615,q),
(223,615,l)
);
}
);
width = 728;
}
);
unicode = 223;
},
{
glyphname = igrave;
layers = (
{
layerId = "f82a6a9d-0b44-4d80-bd76-0945f084e1d5";
name = Fore;
shapes = (
{
closed = 1;
nodes = (
(136,21,o),
(123,14,q),
(110,7,o),
(102,6.5,q),
(94,6,o),
(87,6,q),
(80,6,o),
(68.5,10.5,q),
(57,15,o),
(54,23,q),
(54,470,l),
(117,470,l),
(130,283,o),
(139,37,q)
);
},
{
closed = 1;
nodes = (
(28,668,o),
(43,668,q),
(52,668,o),
(65,654,q),
(132,589,l),
(115,546,l),
(49,591,o),
(38,611,q),
(33,619,o),
(30.5,627,q),
(28,635,o),
(28,640,q)
);
}
);
width = 155;
}
);
unicode = 236;
},
{
glyphname = iacute;
layers = (
{
layerId = "f82a6a9d-0b44-4d80-bd76-0945f084e1d5";
name = Fore;
shapes = (
{
closed = 1;
nodes = (
(130,283,o),
(139,37,q),
(133,6,o),
(91,6,q),
(80,6,o),
(68.5,10.5,q),
(57,15,o),
(54,23,q),
(54,470,l),
(117,470,l)
);
},
{
closed = 1;
nodes = (
(116,658,o),
(132,658,q),
(142,658,o),
(147,648.5,q),
(152,639,o),
(151,630,q),
(150,621,o),
(146,613,q),
(142,605,o),
(133,594,q),
(116,575,o),
(64,532,q),
(33,560,l),
(102,639,l)
);
}
);
width = 155;
}
);
unicode = 237;
},
{
glyphname = icircumflex;
layers = (
{
layerId = "f82a6a9d-0b44-4d80-bd76-0945f084e1d5";
name = Fore;
shapes = (
{
closed = 1;
nodes = (
(130,283,o),
(139,37,q),
(133,6,o),
(91,6,q),
(80,6,o),
(68.5,10.5,q),
(57,15,o),
(54,23,q),
(54,470,l),
(117,470,l)
);
},
{
closed = 1;
nodes = (
(-68,520,o),
(-68,539,q),
(-68,558,o),
(-57.5,576,q),
(-47,594,o),
(-28,614,q),
(14,658,o),
(76,687,q),
(127,654,o),
(144,640,q),
(172,615,o),
(208,559,q),
(214,547,o),
(214,536.5,q),
(214,526,o),
(210,520,q),
(199,504,o),
(174,519,q),
(137,546,o),
(130.5,552,q),
(124,558,o),
(112,571,q),
(100,584,o),
(69,614,q),
(8,572,o),
(-14,536,q),
(-21,524,o),
(-27,510,q),
(-45,510,o),
(-56.5,515,q)
);
}
);
width = 155;
}
);
unicode = 238;
},
{
glyphname = idieresis;
layers = (
{
layerId = "f82a6a9d-0b44-4d80-bd76-0945f084e1d5";
name = Fore;
shapes = (
{
closed = 1;
nodes = (
(130,283,o),
(139,37,q),
(133,6,o),
(91,6,q),
(80,6,o),
(68.5,10.5,q),
(57,15,o),
(54,23,q),
(54,470,l),
(117,470,l)
);
},
{
closed = 1;
nodes = (
(-38,597,o),
(-38,631,q),
(-38,643,o),
(12,664,q),
(33,664,o),
(40.5,655,q),
(48,646,o),
(48,632,q),
(48,618,o),
(42,611.5,q),
(36,605,o),
(27,602,q),
(15,597,o),
(-14,597,q)
);
},
{
closed = 1;
nodes = (
(106,597,o),
(106,631,q),
(106,644,o),
(157,664,q),
(193,664,o),
(193,630,q),
(193,599,o),
(151,598,q),
(140,597,o),
(130,597,q)
);
}
);
width = 155;
}
);
unicode = 239;
},
{
glyphname = eth;
layers = (
{
layerId = "f82a6a9d-0b44-4d80-bd76-0945f084e1d5";
name = Fore;
shapes = (
{
closed = 1;
nodes = (
(541,351,o),
(541,238,q),
(541,119,o),
(470,54,q),
(438,25,o),
(389,11,q),
(373,6,o),
(355,6,q),
(337,6,o),
(307,12,q),
(277,18,o),
(234.5,37,q),
(192,56,o),
(153,84,q),
(69,143,o),
(53,202,q),
(51,211,o),
(51,225.5,q),
(51,240,o),
(65,259,q),
(104,299,o),
(146,312,q),
(188,325,o),
(213,325,q),
(238,325,o),
(266,324,q),
(294,323,o),
(349.5,310.5,q),
(405,298,o),
(466,286,q),
(458,359,o),
(410,428,q),
(331,383,l),
(290,449,l),
(358,483,l),
(315,551,o),
(238,580,q),
(238,598,o),
(252.5,608.5,q),
(267,619,o),
(280,622,q),
(342,590,o),
(361,577,q),
(400,552,o),
(438,514,q),
(511,566,l),
(553,517,l),
(483,466,l)
);
},
{
closed = 1;
nodes = (
(146,148,o),
(215,106,q),
(271,73,o),
(366,73,q),
(424,77,o),
(450,118,q),
(467,144,o),
(467,169.5,q),
(467,195,o),
(463,212,q),
(361,252,o),
(277,252,q),
(193,252,o),
(146,232,q)
);
}
);
width = 594;
}
);
unicode = 240;
},
{
glyphname = thorn;
layers = (
{
layerId = "f82a6a9d-0b44-4d80-bd76-0945f084e1d5";
name = Fore;
shapes = (
{
closed = 1;
nodes = (
(113,-18,l),
(113,-47,o),
(117,-78,q),
(118,-86,o),
(118,-92,q),
(118,-118,o),
(102.5,-130.5,q),
(87,-143,o),
(72,-143,q),
(57,-143,o),
(50,-142,q),
(24,582,l),
(47,591,o),
(58.5,591,q),
(70,591,o),
(77,576,q),
(91,550,o),
(95,420,q),
(227,460,o),
(323,460,q),
(449,460,o),
(491,400,q),
(510,373,o),
(510,340,q),
(510,295,o),
(480,249.5,q),
(450,204,o),
(399,166,q),
(282,81,o),
(113,64,q),
(114,46,o),
(114,29,q)
);
},
{
closed = 1;
nodes = (
(354,402,o),
(316.5,402,q),
(279,402,o),
(242,395,q),
(158,379,o),
(118,324,q),
(100,298,o),
(100,260,q),
(100,256,o),
(100,252,q),
(105,131,l),
(309,177,o),
(396,246,q),
(444,285,o),
(444,324,q),
(444,367,o),
(388,389,q)
);
}
);
width = 531;
}
);
unicode = 254;
},
{
glyphname = itilde;
layers = (
{
layerId = "f82a6a9d-0b44-4d80-bd76-0945f084e1d5";
name = Fore;
shapes = (
{
closed = 1;
nodes = (
(130,283,o),
(139,37,q),
(133,6,o),
(91,6,q),
(80,6,o),
(68.5,10.5,q),
(57,15,o),
(54,23,q),
(54,470,l),
(117,470,l)
);
},
{
closed = 1;
nodes = (
(-34,601,o),
(-88,520,q),
(-94,520,o),
(-107.5,524,q),
(-121,528,o),
(-124,541,q),
(-109,589,o),
(-79,626,q),
(-49,663,o),
(-16,676,q),
(-8,679,o),
(2,679,q),
(12,679,o),
(26.5,668.5,q),
(41,658,o),
(59,639,q),
(77,620,o),
(96,603,q),
(115,586,o),
(136.5,586,q),
(158,586,o),
(170.5,593,q),
(183,600,o),
(193.5,613,q),
(204,626,o),
(216.5,645,q),
(229,664,o),
(252,688,q),
(258,688,o),
(264.5,677.5,q),
(271,667,o),
(271.5,659.5,q),
(272,652,o),
(272,641,q),
(272,630,o),
(264.5,612,q),
(257,594,o),
(240,576,q),
(196,529,o),
(134,529,q),
(88,529,o),
(60,560,q),
(40,578,o),
(26,589.5,q),
(12,601,o),
(-2,601,q)
);
}
);
width = 155;
}
);
unicode = 297;
},
{
glyphname = imacron;
layers = (
{
layerId = "f82a6a9d-0b44-4d80-bd76-0945f084e1d5";
name = Fore;
shapes = (
{
closed = 1;
nodes = (
(130,283,o),
(139,37,q),
(133,6,o),
(91,6,q),
(80,6,o),
(68.5,10.5,q),
(57,15,o),
(54,23,q),
(54,470,l),
(117,470,l)
);
},
{
closed = 1;
nodes = (
(-68,534,o),
(-68,559,q),
(-68,573,o),
(-56.5,578,q),
(-45,583,o),
(-16.5,587,q),
(12,591,o),
(55.5,598.5,q),
(99,606,o),
(147,611,q),
(189,611,o),
(200,588,q),
(201,584,o),
(201,579.5,q),
(201,575,o),
(196.5,567.5,q),
(192,560,o),
(174,554,q),
(-18,534,l)
);
}
);
width = 155;
}
);
unicode = 299;
},
{
glyphname = dotlessi;
layers = (
{
layerId = "f82a6a9d-0b44-4d80-bd76-0945f084e1d5";
name = Fore;
shapes = (
{
closed = 1;
nodes = (
(130,283,o),
(139,37,q),
(133,6,o),
(91,6,q),
(80,6,o),
(68.5,10.5,q),
(57,15,o),
(54,23,q),
(54,470,l),
(117,470,l)
);
}
);
width = 155;
}
);
unicode = 305;
},
{
glyphname = jcircumflex;
layers = (
{
layerId = "f82a6a9d-0b44-4d80-bd76-0945f084e1d5";
name = Fore;
shapes = (
{
closed = 1;
nodes = (
(163,-367,o),
(75,-367,q),
(66,-367,o),
(52.5,-366.5,q),
(39,-366,o),
(12.5,-362.5,q),
(-14,-359,o),
(-41,-350,q),
(-106,-328,o),
(-124,-286,q),
(-124,-281,o),
(-117,-265.5,q),
(-110,-250,o),
(-110,-249,q),
(-77,-274,o),
(-39,-296,q),
(-1,-318,o),
(42,-318,q),
(70,-318,o),
(88,-276,q),
(103,-240,o),
(103,-204,q),
(103,-119,o),
(96.5,-38.5,q),
(90,42,o),
(84,122,q),
(70,287,o),
(70,347.5,q),
(70,408,o),
(72,448,q),
(69,472,o),
(94,484,q),
(113,493,o),
(136,493,q),
(127,431,o),
(127,395,q),
(127,359,o),
(127.5,320.5,q),
(128,282,o),
(133.5,208,q),
(139,134,o),
(146,60,q),
(163,-101,o),
(163,-200,q)
);
},
{
closed = 1;
nodes = (
(-65,520,o),
(-65,539,q),
(-65,558,o),
(-54.5,576,q),
(-44,594,o),
(-25,614,q),
(17,658,o),
(79,687,q),
(130,654,o),
(147,640,q),
(175,615,o),
(211,559,q),
(217,547,o),
(217,536.5,q),
(217,526,o),
(212,520,q),
(202,504,o),
(177,519,q),
(140,546,o),
(133.5,552,q),
(127,558,o),
(115,571,q),
(103,584,o),
(72,614,q),
(11,572,o),
(-10,536,q),
(-18,524,o),
(-24,510,q),
(-42,510,o),
(-53.5,515,q)
);
}
);
width = 172;
}
);
unicode = 309;
},
{
glyphname = OE;
layers = (
{
layerId = "f82a6a9d-0b44-4d80-bd76-0945f084e1d5";
name = Fore;
shapes = (
{
closed = 1;
nodes = (
(940,622,o),
(976,609,q),
(976,559,l),
(948,555,o),
(848,554,q),
(663,552,o),
(600,538,q),
(583,460,o),
(584,430,q),
(585,400,o),
(586,384,q),
(590,345,o),
(590,293,q),
(651,293,o),
(742,304.5,q),
(833,316,o),
(881,321.5,q),
(929,327,o),
(979,327,q),
(979,273,l),
(597,225,l),
(602,61,l),
(719,61,o),
(814,70,q),
(989,88,o),
(1076,88,q),
(1076,68,o),
(1063,51,q),
(1050,34,o),
(1040.5,29,q),
(1031,24,o),
(1021,31,q),
(895,17,o),
(520,-14,q),
(520,74,l),
(475,17,o),
(398,-2,q),
(369,-10,o),
(317.5,-10,q),
(266,-10,o),
(209,9.5,q),
(152,29,o),
(110,68,q),
(22,151,o),
(22,299,q),
(22,368,o),
(46.5,429,q),
(71,490,o),
(113.5,535.5,q),
(156,581,o),
(212.5,608,q),
(269,635,o),
(334,635,q),
(450,635,o),
(523,526,q),
(524,625,l),
(551,617,o),
(633,617,q),
(855,622,l)
);
},
{
closed = 1;
nodes = (
(104,361,o),
(104,308.5,q),
(104,256,o),
(118.5,208,q),
(133,160,o),
(162,126,q),
(222,54,o),
(337,54,q),
(452,54,o),
(500,148,q),
(514,176,o),
(521,206,q),
(522,402,l),
(495,519,o),
(408,554,q),
(377,566,o),
(335,566,q),
(293,566,o),
(251,544,q),
(209,522,o),
(176,487,q),
(143,452,o),
(123.5,406.5,q)
);
}
);
width = 1084;
}
);
unicode = 338;
},
{
glyphname = oe;
layers = (
{
layerId = "f82a6a9d-0b44-4d80-bd76-0945f084e1d5";
name = Fore;
shapes = (
{
closed = 1;
nodes = (
(24,287,o),
(126,359,q),
(207,416,o),
(321,428,q),
(327,428,o),
(334,428,q),
(384,428,o),
(417,405,q),
(450,382,o),
(464,341,q),
(524,439,o),
(633,469,q),
(666,478,o),
(685,478,q),
(704,478,o),
(714.5,478,q),
(725,478,o),
(757,470,q),
(833,453,o),
(870,408,q),
(885,389,o),
(885,374,q),
(885,359,o),
(883,350,q),
(850,326,o),
(807.5,317.5,q),
(765,309,o),
(720.5,305.5,q),
(676,302,o),
(634,299,q),
(541,292,o),
(511,246,q),
(498,227,o),
(498,205.5,q),
(498,184,o),
(500,171,q),
(525,80,o),
(628,80,q),
(685,80,o),
(744,100,q),
(816,126,o),
(893,161,q),
(903,161,o),
(910.5,153.5,q),
(918,146,o),
(918,135,q),
(882,73,o),
(784,36,q),
(708,7,o),
(632,7,q),
(561,7,o),
(513,30.5,q),
(465,54,o),
(441,90,q),
(381,-22,o),
(216,-22,q),
(121,-22,o),
(72.5,22,q),
(24,66,o),
(24,169,q)
);
},
{
closed = 1;
nodes = (
(413,136,o),
(414.5,163,q),
(416,190,o),
(418,202,q),
(418,267,l),
(418,330,o),
(390,358,q),
(375,373,o),
(345,373,q),
(306,366,o),
(266.5,358,q),
(227,350,o),
(192,328,q),
(116,278,o),
(93,145,q),
(93,83,o),
(126,62,q),
(151,45,o),
(208.5,45,q),
(266,45,o),
(300.5,49.5,q),
(335,54,o),
(359.5,68,q),
(384,82,o),
(398.5,109,q)
);
},
{
closed = 1;
nodes = (
(754,418,o),
(701,418,q),
(663,418,o),
(635,407,q),
(578,385,o),
(578,350,q),
(777,382,l)
);
}
);
width = 935;
}
);
unicode = 339;
},
{
glyphname = florin;
layers = (
{
layerId = "f82a6a9d-0b44-4d80-bd76-0945f084e1d5";
name = Fore;
shapes = (
{
closed = 1;
nodes = (
(606,334,o),
(606,307,q),
(606,280,o),
(608,270,q),
(265,228,l),
(286,-397,l),
(66,-418,l),
(68,-333,l),
(212,-330,l),
(212,-241,o),
(205,-118,q),
(198,5,o),
(195,60,q),
(188,180,o),
(182,216,q),
(52,166,l),
(39,166,o),
(30,181,q),
(14,207,o),
(14,228,q),
(166,282,l),
(146,454,o),
(146,561.5,q),
(146,669,o),
(164,729,q),
(182,789,o),
(216.5,809.5,q),
(251,830,o),
(290,830,q),
(329,830,o),
(369.5,813,q),
(410,796,o),
(447,770,q),
(484,744,o),
(510,711.5,q),
(536,679,o),
(536,648,q),
(536,624,o),
(531,614,q),
(491,670,o),
(434,714,q),
(366,766,o),
(306,766,q),
(249,766,o),
(230,685,q),
(221,643,o),
(221,566.5,q),
(221,490,o),
(225,426.5,q),
(229,363,o),
(249,299,q),
(311,299,o),
(388,310,q),
(536,333,o),
(601,334,q)
);
}
);
width = 608;
}
);
unicode = 402;
},
{
glyphname = circumflex;
layers = (
{
layerId = "f82a6a9d-0b44-4d80-bd76-0945f084e1d5";
name = Fore;
shapes = (
{
closed = 1;
nodes = (
(18,520,o),
(18,539,q),
(18,558,o),
(28.5,576,q),
(39,594,o),
(58,614,q),
(100,658,o),
(162,687,q),
(213,654,o),
(230,640,q),
(258,615,o),
(294,559,q),
(300,547,o),
(300,536.5,q),
(300,526,o),
(296,520,q),
(285,504,o),
(260,519,q),
(223,546,o),
(216.5,552,q),
(210,558,o),
(198,571,q),
(186,584,o),
(155,614,q),
(94,572,o),
(72,536,q),
(65,524,o),
(59,510,q),
(41,510,o),
(29.5,515,q)
);
}
);
width = 314;
}
);
unicode = 710;
},
{
glyphname = caron;
layers = (
{
layerId = "f82a6a9d-0b44-4d80-bd76-0945f084e1d5";
name = Fore;
shapes = (
{
closed = 1;
nodes = (
(31,542,o),
(31,555,q),
(31,568,o),
(41,571,q),
(51,574,o),
(66,574,q),
(77,555,o),
(93.5,540,q),
(110,525,o),
(147,505,q),
(174,525,o),
(184,533.5,q),
(194,542,o),
(199.5,546,q),
(205,550,o),
(211.5,553.5,q),
(218,557,o),
(237,568,q),
(258,578,o),
(266,568,q),
(270,563,o),
(270,556.5,q),
(270,550,o),
(265,541,q),
(236,504,o),
(218,492,q),
(195,476,o),
(154,455,q),
(103,474,o),
(76,496,q),
(49,518,o),
(40,530,q)
);
}
);
width = 314;
}
);
unicode = 711;
},
{
glyphname = breve;
layers = (
{
layerId = "f82a6a9d-0b44-4d80-bd76-0945f084e1d5";
name = Fore;
shapes = (
{
closed = 1;
nodes = (
(31,568,o),
(41,571,q),
(51,574,o),
(66,574,q),
(70,542,o),
(86,532,q),
(102,522,o),
(111.5,522,q),
(121,522,o),
(133,523.5,q),
(145,525,o),
(163.5,537.5,q),
(182,550,o),
(190,566,q),
(200,571,o),
(207.5,571,q),
(215,571,o),
(219.5,566,q),
(224,561,o),
(224,554.5,q),
(224,548,o),
(218,539,q),
(190,496,o),
(163,485,q),
(136,474,o),
(121,474,q),
(77,474,o),
(54,499.5,q),
(31,525,o),
(31,546.5,q)
);
}
);
width = 252;
}
);
unicode = 728;
},
{
glyphname = dotaccent;
layers = (
{
layerId = "f82a6a9d-0b44-4d80-bd76-0945f084e1d5";
name = Fore;
shapes = (
{
closed = 1;
nodes = (
(39,535,o),
(51,543.5,q),
(63,552,o),
(70,552,q),
(77,552,o),
(86,550.5,q),
(95,549,o),
(107,537.5,q),
(119,526,o),
(121,510,q),
(121,486,o),
(111,478.5,q),
(101,471,o),
(88,471,q),
(75,471,o),
(67,473.5,q),
(59,476,o),
(52,482,q),
(34,494,o),
(34,511,q)
);
}
);
width = 144;
}
);
unicode = 729;
},
{
glyphname = ring;
layers = (
{
layerId = "f82a6a9d-0b44-4d80-bd76-0945f084e1d5";
name = Fore;
shapes = (
{
closed = 1;
nodes = (
(31,481,o),
(31,507.5,q),
(31,534,o),
(43,554,q),
(63,587,o),
(103,587,q),
(129,587,o),
(152,575,q),
(199,550,o),
(203,504,q),
(203,454,o),
(182,437.5,q),
(161,421,o),
(121,421,q),
(90,421,o),
(69.5,436,q),
(49,451,o),
(40,466,q)
);
},
{
closed = 1;
nodes = (
(134,544,o),
(107,544,q),
(76,544,o),
(70,514,q),
(70,511,o),
(70,501.5,q),
(70,492,o),
(82,473,q),
(103,456,o),
(120,456,q),
(155,456,o),
(162,486,q),
(162,491,o),
(162,499,q),
(162,507,o),
(156,521,q)
);
}
);
width = 225;
}
);
unicode = 730;
},
{
glyphname = ogonek;
layers = (
{
layerId = "f82a6a9d-0b44-4d80-bd76-0945f084e1d5";
name = Fore;
shapes = (
{
closed = 1;
nodes = (
(182,-185,o),
(166,-185,q),
(120,-185,o),
(93,-161,q),
(38,-116,o),
(38,-56,q),
(38,-26,o),
(54.5,-1.5,q),
(71,23,o),
(107,34,q),
(178,9,l),
(176,9,o),
(173,9,q),
(141,9,o),
(121,-4,q),
(91,-24,o),
(91,-55,q),
(91,-87,o),
(112,-105,q),
(139,-128,o),
(165.5,-128,q),
(192,-128,o),
(218,-117,q),
(207,-173,l)
);
}
);
width = 252;
}
);
unicode = 731;
},
{
glyphname = tilde;
layers = (
{
layerId = "f82a6a9d-0b44-4d80-bd76-0945f084e1d5";
name = Fore;
shapes = (
{
closed = 1;
nodes = (
(116,567,o),
(62,486,q),
(56,486,o),
(42.5,490,q),
(29,494,o),
(26,507,q),
(41,555,o),
(71,592,q),
(101,629,o),
(134,642,q),
(142,645,o),
(152,645,q),
(162,645,o),
(176.5,634.5,q),
(191,624,o),
(209,605,q),
(227,586,o),
(246,569,q),
(265,552,o),
(286.5,552,q),
(308,552,o),
(320.5,559,q),
(333,566,o),
(343.5,579,q),
(354,592,o),
(366.5,611,q),
(379,630,o),
(402,654,q),
(408,654,o),
(414.5,643.5,q),
(421,633,o),
(421.5,625.5,q),
(422,618,o),
(422,607,q),
(422,596,o),
(414.5,578,q),
(407,560,o),
(390,542,q),
(346,495,o),
(284,495,q),
(238,495,o),
(210,526,q),
(190,544,o),
(176,555.5,q),
(162,567,o),
(148,567,q)
);
}
);
width = 455;
}
);
unicode = 732;
},
{
glyphname = hungarumlaut;
layers = (
{
layerId = "f82a6a9d-0b44-4d80-bd76-0945f084e1d5";
name = Fore;
shapes = (
{
closed = 1;
nodes = (
(109,658,o),
(126,658,q),
(134,658,o),
(140,651,q),
(146,644,o),
(148,635,q),
(148,617,o),
(138,600,q),
(122,573,o),
(81,520,q),
(44,542,l),
(97,633,l)
);
},
{
closed = 1;
nodes = (
(242,607,o),
(232,590,q),
(219,568,o),
(174,510,q),
(138,532,l),
(190,622,l),
(202,647,o),
(219.5,647,q),
(237,647,o),
(242,624,q)
);
}
);
width = 279;
}
);
unicode = 733;
},
{
glyphname = endash;
layers = (
{
layerId = "f82a6a9d-0b44-4d80-bd76-0945f084e1d5";
name = Fore;
shapes = (
{
closed = 1;
nodes = (
(30,216,o),
(30,242,q),
(30,255,o),
(41.5,260,q),
(53,265,o),
(81.5,269,q),
(110,273,o),
(153.5,281,q),
(197,289,o),
(245,294,q),
(265,294,o),
(279,287,q),
(299,277,o),
(299,263,q),
(299,258,o),
(294.5,250,q),
(290,242,o),
(272,236,q),
(80,216,l)
);
}
);
width = 318;
}
);
unicode = 8211;
},
{
glyphname = emdash;
layers = (
{
layerId = "f82a6a9d-0b44-4d80-bd76-0945f084e1d5";
name = Fore;
shapes = (
{
closed = 1;
nodes = (
(30,216,o),
(30,242,q),
(30,255,o),
(41.5,260,q),
(53,265,o),
(70,267.5,q),
(87,270,o),
(123,273.5,q),
(159,277,o),
(197.5,280.5,q),
(236,284,o),
(272.5,287,q),
(309,290,o),
(332,293,q),
(352,293,o),
(366,286,q),
(386,276,o),
(386,262,q),
(386,257,o),
(381.5,249,q),
(377,241,o),
(359,235,q),
(80,216,l)
);
}
);
width = 421;
}
);
unicode = 8212;
},
{
glyphname = quoteleft;
layers = (
{
layerId = "f82a6a9d-0b44-4d80-bd76-0945f084e1d5";
name = Fore;
shapes = (
{
closed = 1;
nodes = (
(128,619,o),
(128,584,q),
(128,543,o),
(94,476,q),
(84,456,o),
(75,442,q),
(27,438,l),
(83,614,l),
(95,619,o),
(104,619,q)
);
}
);
width = 166;
}
);
unicode = 8216;
},
{
glyphname = quoteright;
layers = (
{
layerId = "f82a6a9d-0b44-4d80-bd76-0945f084e1d5";
name = Fore;
shapes = (
{
closed = 1;
nodes = (
(128,619,o),
(128,584,q),
(128,543,o),
(94,476,q),
(84,456,o),
(75,442,q),
(27,438,l),
(83,614,l),
(95,619,o),
(104,619,q)
);
}
);
width = 166;
}
);
unicode = 8217;
},
{
glyphname = quotesinglbase;
layers = (
{
layerId = "f82a6a9d-0b44-4d80-bd76-0945f084e1d5";
name = Fore;
shapes = (
{
closed = 1;
nodes = (
(136,191,o),
(136,156,q),
(136,115,o),
(102,48,q),
(92,28,o),
(83,14,q),
(35,10,l),
(91,186,l),
(103,191,o),
(112,191,q)
);
}
);
width = 166;
}
);
unicode = 8218;
},
{
glyphname = quotedblleft;
layers = (
{
layerId = "f82a6a9d-0b44-4d80-bd76-0945f084e1d5";
name = Fore;
shapes = (
{
closed = 1;
nodes = (
(147,622,l),
(146,663,l),
(146,746,o),
(182,763,q),
(199,747,l),
(199,548,l),
(215,514,l),
(212,511,o),
(199.5,504.5,q),
(187,498,o),
(182,498,q),
(146,498,o),
(146,594,q)
);
},
{
closed = 1;
nodes = (
(55,614,l),
(54,656,l),
(54,739,o),
(90,756,q),
(106,740,l),
(106,541,l),
(123,507,l),
(119,503,o),
(107,496.5,q),
(95,490,o),
(90,490,q),
(54,490,o),
(54,585,q)
);
}
);
width = 242;
}
);
unicode = 8220;
},
{
glyphname = quotedblright;
layers = (
{
layerId = "f82a6a9d-0b44-4d80-bd76-0945f084e1d5";
name = Fore;
shapes = (
{
closed = 1;
nodes = (
(147,622,l),
(146,663,l),
(146,746,o),
(182,763,q),
(199,747,l),
(199,548,l),
(215,514,l),
(212,511,o),
(199.5,504.5,q),
(187,498,o),
(182,498,q),
(146,498,o),
(146,594,q)
);
},
{
closed = 1;
nodes = (
(55,614,l),
(54,656,l),
(54,739,o),
(90,756,q),
(106,740,l),
(106,541,l),
(123,507,l),
(119,503,o),
(107,496.5,q),
(95,490,o),
(90,490,q),
(54,490,o),
(54,585,q)
);
}
);
width = 242;
}
);
unicode = 8221;
},
{
glyphname = quotedblbase;
layers = (
{
layerId = "f82a6a9d-0b44-4d80-bd76-0945f084e1d5";
name = Fore;
shapes = (
{
closed = 1;
nodes = (
(186,155,l),
(185,195,l),
(185,277,o),
(221,297,q),
(238,280,l),
(238,81,l),
(254,47,l),
(251,43,o),
(238.5,37,q),
(226,31,o),
(221,31,q),
(185,31,o),
(185,127,q)
);
},
{
closed = 1;
nodes = (
(86,159,l),
(85,201,l),
(85,282,o),
(121,301,q),
(138,284,l),
(138,85,l),
(154,52,l),
(151,47,o),
(138.5,41,q),
(126,35,o),
(121,35,q),
(85,35,o),
(85,131,q)
);
}
);
width = 287;
}
);
unicode = 8222;
},
{
glyphname = dagger;
layers = (
{
layerId = "f82a6a9d-0b44-4d80-bd76-0945f084e1d5";
name = Fore;
shapes = (
{
closed = 1;
nodes = (
(229,-2,o),
(204,-2,q),
(168,-2,l),
(156,-2,o),
(154,-3,q),
(150,516,l),
(91,510,l),
(49,510,o),
(30,524,q),
(23,529,o),
(23,540,q),
(23,560,o),
(70,566,q),
(91,568,o),
(110.5,570.5,q),
(130,573,o),
(150,575,q),
(140,856,l),
(220,856,l),
(229,586,l),
(237,587,o),
(312,594,q),
(369,594,o),
(383,570,q),
(386,566,o),
(386,561,q),
(386,556,o),
(379.5,547.5,q),
(373,539,o),
(349,532,q),
(229,522,l),
(229,0,l)
);
}
);
width = 410;
}
);
unicode = 8224;
},
{
glyphname = daggerdbl;
layers = (
{
layerId = "f82a6a9d-0b44-4d80-bd76-0945f084e1d5";
name = Fore;
shapes = (
{
closed = 1;
nodes = (
(229,-2,o),
(204,-2,q),
(168,-2,l),
(156,-2,o),
(154,-3,q),
(151,406,l),
(79,397,l),
(47,401,o),
(36.5,407.5,q),
(26,414,o),
(27.5,423.5,q),
(29,433,o),
(50,450,q),
(54,454,o),
(150,463,q),
(150,516,l),
(91,510,l),
(49,510,o),
(30,524,q),
(23,529,o),
(23,540,q),
(23,560,o),
(70,566,q),
(91,568,o),
(110.5,570.5,q),
(130,573,o),
(150,575,q),
(140,856,l),
(220,856,l),
(229,586,l),
(237,587,o),
(312,594,q),
(369,594,o),
(383,570,q),
(389,560,o),
(381,549.5,q),
(373,539,o),
(349,532,q),
(229,522,l),
(229,472,l),
(262,476,o),
(294.5,479.5,q),
(327,483,o),
(353,488,q),
(369,493,o),
(378.5,487.5,q),
(388,482,o),
(388,472,q),
(388,449,o),
(370,436,q),
(229,417,l),
(229,0,l)
);
}
);
width = 410;
}
);
unicode = 8225;
},
{
glyphname = bullet;
layers = (
{
layerId = "f82a6a9d-0b44-4d80-bd76-0945f084e1d5";
name = Fore;
shapes = (
{
closed = 1;
nodes = (
(41,294,o),
(59.5,307.5,q),
(78,321,o),
(89,321,q),
(122,321,o),
(142,301,q),
(162,281,o),
(165,255,q),
(165,218,o),
(150,206,q),
(135,194,o),
(115,194,q),
(95,194,o),
(82.5,198,q),
(70,202,o),
(59,210,q),
(33,231,o),
(33,257,q)
);
}
);
width = 197;
}
);
unicode = 8226;
},
{
glyphname = ellipsis;
layers = (
{
layerId = "f82a6a9d-0b44-4d80-bd76-0945f084e1d5";
name = Fore;
shapes = (
{
closed = 1;
nodes = (
(22,42,o),
(40,50.5,q),
(58,59,o),
(72,66,q),
(93,66,o),
(100.5,57.5,q),
(108,49,o),
(108,35,q),
(108,21,o),
(102,14,q),
(96,7,o),
(87,4,q),
(72,-1,o),
(47,-1,q),
(22,-1,o),
(22,34,q)
);
},
{
closed = 1;
nodes = (
(166,42,o),
(184,50.5,q),
(202,59,o),
(216,66,q),
(237,66,o),
(244.5,57.5,q),
(252,49,o),
(252,35,q),
(252,21,o),
(246,14,q),
(240,7,o),
(231,4,q),
(216,-1,o),
(191,-1,q),
(166,-1,o),
(166,34,q)
);
},
{
closed = 1;
nodes = (
(310,-1,o),
(310,34,q),
(310,42,o),
(335,54,q),
(361,66,l),
(397,66,o),
(397,33,q),
(397,-1,o),
(334,-1,q)
);
}
);
width = 433;
}
);
unicode = 8230;
},
{
glyphname = guilsinglleft;
layers = (
{
layerId = "f82a6a9d-0b44-4d80-bd76-0945f084e1d5";
name = Fore;
shapes = (
{
closed = 1;
nodes = (
(116,254,o),
(159,288,q),
(202,322,o),
(246,356,q),
(354,441,o),
(401,467,q),
(414,467,o),
(420,445,q),
(423,436,o),
(423,427,q),
(423,418,o),
(419,412,q),
(184,233,l),
(199,225,o),
(227,212.5,q),
(255,200,o),
(289,183,q),
(370,143,o),
(431,103,q),
(430,102,o),
(427,95,q),
(424,88,o),
(420,80,q),
(411,59,o),
(409,59,q),
(379,78,o),
(323,97.5,q),
(267,117,o),
(233,130.5,q),
(199,144,o),
(170,158,q),
(102,192,o),
(84,229,q)
);
}
);
width = 487;
}
);
unicode = 8249;
},
{
glyphname = guilsinglright;
layers = (
{
layerId = "f82a6a9d-0b44-4d80-bd76-0945f084e1d5";
name = Fore;
shapes = (
{
closed = 1;
nodes = (
(73,65,o),
(68,84,q),
(68,88,o),
(68,91,q),
(68,122,o),
(139,164,q),
(244,225,o),
(276,249.5,q),
(308,274,o),
(314,297,q),
(50,396,l),
(100,445,l),
(149,410,o),
(190.5,396,q),
(232,382,o),
(270.5,373.5,q),
(309,365,o),
(347,353.5,q),
(385,342,o),
(426,311,q),
(400,280,o),
(360.5,248.5,q),
(321,217,o),
(277.5,184,q),
(234,151,o),
(191.5,117,q),
(149,83,o),
(118,48,q)
);
}
);
width = 483;
}
);
unicode = 8250;
},
{
glyphname = fraction;
layers = (
{
layerId = "f82a6a9d-0b44-4d80-bd76-0945f084e1d5";
name = Fore;
shapes = (
{
closed = 1;
nodes = (
(21,0,o),
(21,32,q),
(21,42,l),
(21,78,o),
(220,387,q),
(335,564,o),
(413,664,q),
(433,689,o),
(438,689,q),
(444,693,o),
(448.5,693,q),
(453,693,o),
(453,681,q),
(453,669,o),
(434.5,628.5,q),
(416,588,o),
(387,535,q),
(358,482,o),
(323,422,q),
(288,362,o),
(248.5,299.5,q),
(209,237,o),
(171,180,q),
(92,61,o),
(39,0,q)
);
}
);
width = 466;
}
);
unicode = 8260;
},
{
glyphname = Euro;
layers = (
{
layerId = "f82a6a9d-0b44-4d80-bd76-0945f084e1d5";
name = Fore;
shapes = (
{
closed = 1;
nodes = (
(35,175,o),
(35,210,q),
(35,213,o),
(41.5,219.5,q),
(48,226,o),
(52,226,q),
(93,233,o),
(111,236,q),
(111,250,l),
(111,280,o),
(115,310,q),
(78,306,l),
(73,306,o),
(65.5,305.5,q),
(58,305,o),
(50,306,q),
(31,309,o),
(29,323,q),
(49,359,l),
(51,361,o),
(73,363.5,q),
(95,366,o),
(128,370,q),
(165,498,o),
(264,580,q),
(366,665,o),
(495,665,q),
(564,665,o),
(586,646,q),
(611,623,o),
(611,555,q),
(542,594,o),
(475.5,594,q),
(409,594,o),
(354,566,q),
(299,538,o),
(259.5,488.5,q),
(220,439,o),
(205,378,q),
(243,383,o),
(281.5,387.5,q),
(320,392,o),
(352,397,q),
(368,402,o),
(376.5,397,q),
(385,392,o),
(386.5,382.5,q),
(388,373,o),
(383.5,362,q),
(379,351,o),
(370,345,q),
(194,321,l),
(192,307,o),
(192,293,q),
(192,279,o),
(194,266,q),
(194,246,l),
(216,249,o),
(237,251,q),
(258,253,o),
(281,256,q),
(331,263,o),
(390,275,q),
(424,275,o),
(424,241,q),
(424,233,o),
(422,225,q),
(342,225,o),
(254,203,q),
(230,197,o),
(206,192,q),
(229,127,o),
(287.5,96,q),
(346,65,o),
(422,65,q),
(560,77,o),
(597,86,q),
(663,102,o),
(734,147,q),
(748,147,o),
(762.5,143.5,q),
(777,140,o),
(777,121,q),
(697,50,o),
(607,24,q),
(517,-2,o),
(416,-2,q),
(401,-2,o),
(371.5,-1.5,q),
(342,-1,o),
(300,11.5,q),
(258,24,o),
(222,48,q),
(148,97,o),
(122,178,q),
(92,175,o),
(59,175,q)
);
}
);
width = 814;
}
);
unicode = 8364;
},
{
glyphname = trademark;
layers = (
{
layerId = "f82a6a9d-0b44-4d80-bd76-0945f084e1d5";
name = Fore;
shapes = (
{
closed = 1;
nodes = (
(409,493,l),
(368,493,o),
(320,486,q),
(318,447,o),
(312,385,q),
(291,165,o),
(291,99.5,q),
(291,34,o),
(293,7,q),
(199,0,l),
(230,494,l),
(17,506,l),
(9,506,o),
(4.5,519,q),
(0,532,o),
(0,543,q),
(0,554,o),
(9,567,q),
(18,580,o),
(30,580,q),
(90,577,o),
(150,572,q),
(343,558,o),
(405.5,558,q),
(468,558,o),
(514,562,q),
(520,589,o),
(535,601,q),
(550,613,o),
(585,613,q),
(620,613,o),
(648,588.5,q),
(676,564,o),
(699,525.5,q),
(722,487,o),
(741,440,q),
(760,393,o),
(777,348.5,q),
(794,304,o),
(809,267.5,q),
(824,231,o),
(840,213,q),
(1040,561,l),
(1064,583,o),
(1083,583,q),
(1142,583,o),
(1171,399,q),
(1180,340,o),
(1192,234,q),
(1213,43,o),
(1219.5,14,q),
(1226,-15,o),
(1226,-28.5,q),
(1226,-42,o),
(1217,-55,q),
(1208,-68,o),
(1192,-68,q),
(1176,-68,o),
(1160,-55.5,q),
(1144,-43,o),
(1140.5,-24.5,q),
(1137,-6,o),
(1133.5,24,q),
(1130,54,o),
(1125.5,92,q),
(1121,130,o),
(1115.5,171.5,q),
(1110,213,o),
(1105,250,q),
(1096,318,l),
(1092,348,o),
(1090,362,q),
(1090,383,o),
(1089,399.5,q),
(1088,416,o),
(1081,420,q),
(1074,424,o),
(1060,410.5,q),
(1046,397,o),
(1020,357,q),
(967,276,o),
(858,63,q),
(844,38,o),
(820,52,q),
(792,68,o),
(774,130,q),
(599,501,l),
(587,498,o),
(582,498,q),
(566,440,o),
(548,225,q),
(544,177,o),
(542,146,q),
(538,122,o),
(538,99,q),
(542,28,l),
(542,20,o),
(541,3,q),
(540,-14,o),
(528.5,-26.5,q),
(517,-39,o),
(500.5,-39,q),
(484,-39,o),
(471,-38.5,q),
(458,-38,o),
(449,-29,q),
(440,-20,o),
(442.5,1.5,q),
(445,23,o),
(450,63,q),
(455,103,o),
(460.5,149,q),
(466,195,o),
(472,244.5,q),
(478,294,o),
(484,340,q),
(490,386,o),
(495,425.5,q),
(500,465,o),
(504,491,q)
);
}
);
width = 1239;
}
);
unicode = 8482;
},
{
glyphname = minus;
layers = (
{
layerId = "f82a6a9d-0b44-4d80-bd76-0945f084e1d5";
name = Fore;
shapes = (
{
closed = 1;
nodes = (
(30,216,o),
(30,242,q),
(30,255,o),
(41.5,260,q),
(53,265,o),
(81.5,269,q),
(110,273,o),
(153.5,281,q),
(197,289,o),
(245,294,q),
(265,294,o),
(279,287,q),
(299,277,o),
(299,263,q),
(299,258,o),
(294.5,250,q),
(290,242,o),
(272,236,q),
(80,216,l)
);
}
);
width = 318;
}
);
unicode = 8722;
},
{
glyphname = commaaccent;
layers = (
{
layerId = "f82a6a9d-0b44-4d80-bd76-0945f084e1d5";
name = Fore;
shapes = (
{
closed = 1;
nodes = (
(200,-66,o),
(207.5,-64,q),
(215,-62,o),
(224,-62,q),
(233,-62,o),
(240,-64,q),
(262,-70,o),
(262,-87,q),
(262,-103,o),
(207,-188,q),
(197,-204,o),
(192.5,-211.5,q),
(188,-219,o),
(181,-226,q),
(158,-251,o),
(135,-251,q),
(129,-251,o),
(123,-249,q),
(194,-79,l)
);
}
);
width = 410;
}
);
},
